<svg xmlns="http://www.w3.org/2000/svg" xmlns:xlink="http://www.w3.org/1999/xlink" width="880" height="537.62"><rect width="880" height="537.62" rx="5" ry="5" class="a"/><svg y="0%" x="0%"><circle cx="20" cy="20" r="6" fill="#ff5f58"/><circle cx="40" cy="20" r="6" fill="#ffbd2e"/><circle cx="60" cy="20" r="6" fill="#18c132"/></svg><svg height="477.62" viewBox="0 0 80 47.762" width="800" x="35" xmlns="http://www.w3.org/2000/svg" xmlns:xlink="http://www.w3.org/1999/xlink" y="50"><style>@keyframes l{0%{transform:translateX(0)}.71%{transform:translateX(-80px)}.85%{transform:translateX(-400px)}6.09%{transform:translateX(-480px)}6.63%{transform:translateX(-560px)}7.23%{transform:translateX(-640px)}8.32%{transform:translateX(-720px)}9.59%{transform:translateX(-800px)}10.13%{transform:translateX(-880px)}10.99%{transform:translateX(-960px)}12.46%{transform:translateX(-1040px)}12.47%{transform:translateX(-1120px)}12.48%{transform:translateX(-1280px)}12.49%{transform:translateX(-1440px)}12.56%{transform:translateX(-1760px)}17.38%{transform:translateX(-1840px)}17.82%{transform:translateX(-1920px)}18.31%{transform:translateX(-2000px)}19.47%{transform:translateX(-2080px)}20.74%{transform:translateX(-2160px)}21.31%{transform:translateX(-2240px)}22.23%{transform:translateX(-2320px)}22.86%{transform:translateX(-2400px)}25.26%{transform:translateX(-2480px)}25.96%{transform:translateX(-2560px)}26.89%{transform:translateX(-2640px)}27.66%{transform:translateX(-2720px)}28.6%{transform:translateX(-2800px)}29.63%{transform:translateX(-2880px)}30.4%{transform:translateX(-2960px)}31.32%{transform:translateX(-3040px)}31.99%{transform:translateX(-3120px)}37.97%{transform:translateX(-3200px)}38.47%{transform:translateX(-3280px)}40.09%{transform:translateX(-3360px)}40.11%{transform:translateX(-3600px)}40.13%{transform:translateX(-3760px)}40.19%{transform:translateX(-4000px)}40.2%{transform:translateX(-4080px)}45.98%{transform:translateX(-4160px)}46.53%{transform:translateX(-4240px)}46.77%{transform:translateX(-4320px)}47.82%{transform:translateX(-4400px)}48.95%{transform:translateX(-4480px)}49.52%{transform:translateX(-4560px)}50.37%{transform:translateX(-4640px)}51.02%{transform:translateX(-4720px)}52.57%{transform:translateX(-4800px)}53.35%{transform:translateX(-4880px)}58.24%{transform:translateX(-4960px)}59.21%{transform:translateX(-5040px)}60.17%{transform:translateX(-5120px)}61.13%{transform:translateX(-5200px)}61.65%{transform:translateX(-5280px)}62.41%{transform:translateX(-5360px)}63.36%{transform:translateX(-5440px)}64.32%{transform:translateX(-5520px)}65.2%{transform:translateX(-5600px)}66.33%{transform:translateX(-5680px)}67.14%{transform:translateX(-5760px)}67.16%{transform:translateX(-6000px)}67.18%{transform:translateX(-6160px)}67.24%{transform:translateX(-6400px)}67.25%{transform:translateX(-6480px)}72.27%{transform:translateX(-6560px)}72.73%{transform:translateX(-6640px)}73.28%{transform:translateX(-6720px)}74.32%{transform:translateX(-6800px)}75.57%{transform:translateX(-6880px)}76.2%{transform:translateX(-6960px)}77.13%{transform:translateX(-7040px)}77.68%{transform:translateX(-7120px)}79.46%{transform:translateX(-7200px)}80.32%{transform:translateX(-7280px)}85.57%{transform:translateX(-7360px)}87.84%{transform:translateX(-7440px)}88.25%{transform:translateX(-7520px)}89.52%{transform:translateX(-7600px)}90.66%{transform:translateX(-7680px)}90.67%{transform:translateX(-7840px)}90.68%{transform:translateX(-7920px)}90.82%{transform:translateX(-8080px)}90.88%{transform:translateX(-8400px)}to{transform:translateX(-8480px)}}.a{fill:#282d35}.f,.g,.i{fill:#a8cc8c;white-space:pre}.g,.i{fill:#b9c0cb}.i{fill:#e88388;font-weight:700}</style><g font-family="Monaco,Consolas,Menlo,'Bitstream Vera Sans Mono','Powerline Symbols',monospace" font-size="1.67"><defs><symbol id="1"><text y="1.67" class="f">Wollemat</text><text x="9.018" y="1.67" class="g">-</text><text x="11.022" y="1.67" style="white-space:pre" fill="#71bef2">/Users/Wollemat/Documents</text></symbol><symbol id="2"><text y="1.67" class="g">$</text></symbol><symbol id="3"><text y="1.67" class="g">$</text><text x="2.004" y="1.67" class="i">s</text></symbol><symbol id="4"><text y="1.67" class="g">$</text><text x="2.004" y="1.67" class="f">sa</text></symbol><symbol id="5"><text y="1.67" class="g">$</text><text x="2.004" y="1.67" class="i">sam</text></symbol><symbol id="6"><text y="1.67" class="g">$</text><text x="2.004" y="1.67" class="i">samu</text></symbol><symbol id="7"><text y="1.67" class="g">$</text><text x="2.004" y="1.67" class="i">samur</text></symbol><symbol id="8"><text y="1.67" class="g">$</text><text x="2.004" y="1.67" class="i">samura</text></symbol><symbol id="9"><text y="1.67" class="g">$</text><text x="2.004" y="1.67" class="f">samurai</text></symbol><symbol id="10"><text y="1.67" class="g">ruyekafexiju</text></symbol><symbol id="11"><text y="1.67" class="g">$</text><text x="2.004" y="1.67" class="f">samurai</text><text x="10.02" y="1.67" class="g">-</text></symbol><symbol id="12"><text y="1.67" class="g">$</text><text x="2.004" y="1.67" class="f">samurai</text><text x="10.02" y="1.67" class="g">--</text></symbol><symbol id="13"><text y="1.67" class="g">$</text><text x="2.004" y="1.67" class="f">samurai</text><text x="10.02" y="1.67" class="g">--length</text></symbol><symbol id="14"><text y="1.67" class="g">$</text><text x="2.004" y="1.67" class="f">samurai</text><text x="10.02" y="1.67" class="g">--length</text><text x="19.038" y="1.67" class="g">15</text></symbol><symbol id="15"><text y="1.67" class="g">haruvibigaraxof</text></symbol><symbol id="16"><text y="1.67" class="g">$</text><text x="2.004" y="1.67" class="f">samurai</text><text x="10.02" y="1.67" class="g">--numbered</text></symbol><symbol id="17"><text y="1.67" class="g">$</text><text x="2.004" y="1.67" class="f">samurai</text><text x="10.02" y="1.67" class="g">--numbered</text><text x="21.042" y="1.67" class="g">2</text></symbol><symbol id="18"><text y="1.67" class="g">gasogovoge22</text></symbol><symbol id="19"><text y="1.67" class="g">$</text><text x="2.004" y="1.67" class="f">samurai</text><text x="10.02" y="1.67" class="g">--copy</text></symbol><symbol id="20"><text y="1.67" class="g">Password</text><text x="9.018" y="1.67" class="g">has</text><text x="13.026" y="1.67" class="g">been</text><text x="18.036" y="1.67" class="g">copied</text><text x="25.05" y="1.67" class="g">to</text><text x="28.056" y="1.67" class="g">the</text><text x="32.064" y="1.67" class="g">clipboard.</text></symbol><symbol id="a"><path fill="transparent" d="M0 0h80v23H0z"/></symbol><symbol id="b"><path fill="#6f7683" d="M0 0h1.102v2.171H0z"/></symbol></defs><path class="a" d="M0 0h80v47.762H0z"/><g style="animation-duration:18.57312s;animation-iteration-count:infinite;animation-name:l;animation-timing-function:steps(1,end)"><svg width="8560"><svg><use xlink:href="#a"/><use xlink:href="#b" x="-.004"/></svg><svg x="80"><use xlink:href="#a"/><use xlink:href="#b" x="-.004" y="2.146"/></svg><svg x="160"><use xlink:href="#a"/><use xlink:href="#b" x="-.004" y="2.146"/></svg><svg x="240"><use xlink:href="#a"/><use xlink:href="#b" x="1.996" y="4.317"/><use xlink:href="#1" y="2.171"/><use xlink:href="#2" y="4.342"/></svg><svg x="320"><use xlink:href="#a"/><use xlink:href="#b" x="1.996" y="4.317"/><use xlink:href="#1" y="2.171"/><use xlink:href="#2" y="4.342"/></svg><svg x="400"><use xlink:href="#a"/><use xlink:href="#b" x="1.996" y="4.317"/><use xlink:href="#1" y="2.171"/><use xlink:href="#2" y="4.342"/></svg><svg x="480"><use xlink:href="#a"/><use xlink:href="#b" x="2.996" y="4.317"/><use xlink:href="#1" y="2.171"/><use xlink:href="#3" y="4.342"/></svg><svg x="560"><use xlink:href="#a"/><use xlink:href="#b" x="3.996" y="4.317"/><use xlink:href="#1" y="2.171"/><use xlink:href="#4" y="4.342"/></svg><svg x="640"><use xlink:href="#a"/><use xlink:href="#b" x="4.996" y="4.317"/><use xlink:href="#1" y="2.171"/><use xlink:href="#5" y="4.342"/></svg><svg x="720"><use xlink:href="#a"/><use xlink:href="#b" x="5.996" y="4.317"/><use xlink:href="#1" y="2.171"/><use xlink:href="#6" y="4.342"/></svg><svg x="800"><use xlink:href="#a"/><use xlink:href="#b" x="6.996" y="4.317"/><use xlink:href="#1" y="2.171"/><use xlink:href="#7" y="4.342"/></svg><svg x="880"><use xlink:href="#a"/><use xlink:href="#b" x="7.996" y="4.317"/><use xlink:href="#1" y="2.171"/><use xlink:href="#8" y="4.342"/></svg><svg x="960"><use xlink:href="#a"/><use xlink:href="#b" x="8.996" y="4.317"/><use xlink:href="#1" y="2.171"/><use xlink:href="#9" y="4.342"/></svg><svg x="1040"><use xlink:href="#a"/><use xlink:href="#b" x="8.996" y="4.317"/><use xlink:href="#1" y="2.171"/><use xlink:href="#9" y="4.342"/></svg><svg x="1120"><use xlink:href="#a"/><use xlink:href="#b" x="-.004" y="6.488"/><use xlink:href="#1" y="2.171"/><use xlink:href="#9" y="4.342"/></svg><svg x="1200"><use xlink:href="#a"/><use xlink:href="#b" x="-.004" y="8.659"/><use xlink:href="#1" y="2.171"/><use xlink:href="#9" y="4.342"/></svg><svg x="1280"><use xlink:href="#a"/><use xlink:href="#b" x="-.004" y="8.659"/><use xlink:href="#1" y="2.171"/><use xlink:href="#9" y="4.342"/></svg><svg x="1360"><use xlink:href="#a"/><use xlink:href="#b" x="-.004" y="10.83"/><use xlink:href="#1" y="2.171"/><use xlink:href="#9" y="4.342"/><use xlink:href="#10" y="8.684"/></svg><svg x="1440"><use xlink:href="#a"/><use xlink:href="#b" x="-.004" y="13.001"/><use xlink:href="#1" y="2.171"/><use xlink:href="#9" y="4.342"/><use xlink:href="#10" y="8.684"/></svg><svg x="1520"><use xlink:href="#a"/><use xlink:href="#b" x="-.004" y="13.001"/><use xlink:href="#1" y="2.171"/><use xlink:href="#9" y="4.342"/><use xlink:href="#10" y="8.684"/></svg><svg x="1600"><use xlink:href="#a"/><use xlink:href="#b" x="1.996" y="15.172"/><use xlink:href="#1" y="2.171"/><use xlink:href="#9" y="4.342"/><use xlink:href="#10" y="8.684"/><use xlink:href="#1" y="13.026"/><use xlink:href="#2" y="15.197"/></svg><svg x="1680"><use xlink:href="#a"/><use xlink:href="#b" x="1.996" y="15.172"/><use xlink:href="#1" y="2.171"/><use xlink:href="#9" y="4.342"/><use xlink:href="#10" y="8.684"/><use xlink:href="#1" y="13.026"/><use xlink:href="#2" y="15.197"/></svg><svg x="1760"><use xlink:href="#a"/><use xlink:href="#b" x="1.996" y="15.172"/><use xlink:href="#1" y="2.171"/><use xlink:href="#9" y="4.342"/><use xlink:href="#10" y="8.684"/><use xlink:href="#1" y="13.026"/><use xlink:href="#2" y="15.197"/></svg><svg x="1840"><use xlink:href="#a"/><use xlink:href="#b" x="2.996" y="15.172"/><use xlink:href="#1" y="2.171"/><use xlink:href="#9" y="4.342"/><use xlink:href="#10" y="8.684"/><use xlink:href="#1" y="13.026"/><use xlink:href="#3" y="15.197"/></svg><svg x="1920"><use xlink:href="#a"/><use xlink:href="#b" x="3.996" y="15.172"/><use xlink:href="#1" y="2.171"/><use xlink:href="#9" y="4.342"/><use xlink:href="#10" y="8.684"/><use xlink:href="#1" y="13.026"/><use xlink:href="#4" y="15.197"/></svg><svg x="2000"><use xlink:href="#a"/><use xlink:href="#b" x="4.996" y="15.172"/><use xlink:href="#1" y="2.171"/><use xlink:href="#9" y="4.342"/><use xlink:href="#10" y="8.684"/><use xlink:href="#1" y="13.026"/><use xlink:href="#5" y="15.197"/></svg><svg x="2080"><use xlink:href="#a"/><use xlink:href="#b" x="5.996" y="15.172"/><use xlink:href="#1" y="2.171"/><use xlink:href="#9" y="4.342"/><use xlink:href="#10" y="8.684"/><use xlink:href="#1" y="13.026"/><use xlink:href="#6" y="15.197"/></svg><svg x="2160"><use xlink:href="#a"/><use xlink:href="#b" x="6.996" y="15.172"/><use xlink:href="#1" y="2.171"/><use xlink:href="#9" y="4.342"/><use xlink:href="#10" y="8.684"/><use xlink:href="#1" y="13.026"/><use xlink:href="#7" y="15.197"/></svg><svg x="2240"><use xlink:href="#a"/><use xlink:href="#b" x="7.996" y="15.172"/><use xlink:href="#1" y="2.171"/><use xlink:href="#9" y="4.342"/><use xlink:href="#10" y="8.684"/><use xlink:href="#1" y="13.026"/><use xlink:href="#8" y="15.197"/></svg><svg x="2320"><use xlink:href="#a"/><use xlink:href="#b" x="8.996" y="15.172"/><use xlink:href="#1" y="2.171"/><use xlink:href="#9" y="4.342"/><use xlink:href="#10" y="8.684"/><use xlink:href="#1" y="13.026"/><use xlink:href="#9" y="15.197"/></svg><svg x="2400"><use xlink:href="#a"/><use xlink:href="#b" x="9.996" y="15.172"/><use xlink:href="#1" y="2.171"/><use xlink:href="#9" y="4.342"/><use xlink:href="#10" y="8.684"/><use xlink:href="#1" y="13.026"/><use xlink:href="#9" y="15.197"/></svg><svg x="2480"><use xlink:href="#a"/><use xlink:href="#b" x="10.996" y="15.172"/><use xlink:href="#1" y="2.171"/><use xlink:href="#9" y="4.342"/><use xlink:href="#10" y="8.684"/><use xlink:href="#1" y="13.026"/><use xlink:href="#11" y="15.197"/></svg><svg x="2560"><use xlink:href="#a"/><use xlink:href="#b" x="11.996" y="15.172"/><use xlink:href="#1" y="2.171"/><use xlink:href="#9" y="4.342"/><use xlink:href="#10" y="8.684"/><use xlink:href="#1" y="13.026"/><use xlink:href="#12" y="15.197"/></svg><svg x="2640"><use xlink:href="#a"/><use xlink:href="#b" x="12.996" y="15.172"/><use xlink:href="#1" y="2.171"/><use xlink:href="#9" y="4.342"/><use xlink:href="#10" y="8.684"/><use xlink:href="#1" y="13.026"/><text y="16.867" class="g">$</text><text x="2.004" y="16.867" class="f">samurai</text><text x="10.02" y="16.867" class="g">--l</text></svg><svg x="2720"><use xlink:href="#a"/><use xlink:href="#b" x="13.996" y="15.172"/><use xlink:href="#1" y="2.171"/><use xlink:href="#9" y="4.342"/><use xlink:href="#10" y="8.684"/><use xlink:href="#1" y="13.026"/><text y="16.867" class="g">$</text><text x="2.004" y="16.867" class="f">samurai</text><text x="10.02" y="16.867" class="g">--le</text></svg><svg x="2800"><use xlink:href="#a"/><use xlink:href="#b" x="14.996" y="15.172"/><use xlink:href="#1" y="2.171"/><use xlink:href="#9" y="4.342"/><use xlink:href="#10" y="8.684"/><use xlink:href="#1" y="13.026"/><text y="16.867" class="g">$</text><text x="2.004" y="16.867" class="f">samurai</text><text x="10.02" y="16.867" class="g">--len</text></svg><svg x="2880"><use xlink:href="#a"/><use xlink:href="#b" x="15.996" y="15.172"/><use xlink:href="#1" y="2.171"/><use xlink:href="#9" y="4.342"/><use xlink:href="#10" y="8.684"/><use xlink:href="#1" y="13.026"/><text y="16.867" class="g">$</text><text x="2.004" y="16.867" class="f">samurai</text><text x="10.02" y="16.867" class="g">--leng</text></svg><svg x="2960"><use xlink:href="#a"/><use xlink:href="#b" x="16.996" y="15.172"/><use xlink:href="#1" y="2.171"/><use xlink:href="#9" y="4.342"/><use xlink:href="#10" y="8.684"/><use xlink:href="#1" y="13.026"/><text y="16.867" class="g">$</text><text x="2.004" y="16.867" class="f">samurai</text><text x="10.02" y="16.867" class="g">--lengt</text></svg><svg x="3040"><use xlink:href="#a"/><use xlink:href="#b" x="17.996" y="15.172"/><use xlink:href="#1" y="2.171"/><use xlink:href="#9" y="4.342"/><use xlink:href="#10" y="8.684"/><use xlink:href="#1" y="13.026"/><use xlink:href="#13" y="15.197"/></svg><svg x="3120"><use xlink:href="#a"/><use xlink:href="#b" x="18.996" y="15.172"/><use xlink:href="#1" y="2.171"/><use xlink:href="#9" y="4.342"/><use xlink:href="#10" y="8.684"/><use xlink:href="#1" y="13.026"/><use xlink:href="#13" y="15.197"/></svg><svg x="3200"><use xlink:href="#a"/><use xlink:href="#b" x="19.996" y="15.172"/><use xlink:href="#1" y="2.171"/><use xlink:href="#9" y="4.342"/><use xlink:href="#10" y="8.684"/><use xlink:href="#1" y="13.026"/><text y="16.867" class="g">$</text><text x="2.004" y="16.867" class="f">samurai</text><text x="10.02" y="16.867" class="g">--length</text><text x="19.038" y="16.867" class="g">1</text></svg><svg x="3280"><use xlink:href="#a"/><use xlink:href="#b" x="20.996" y="15.172"/><use xlink:href="#1" y="2.171"/><use xlink:href="#9" y="4.342"/><use xlink:href="#10" y="8.684"/><use xlink:href="#1" y="13.026"/><use xlink:href="#14" y="15.197"/></svg><svg x="3360"><use xlink:href="#a"/><use xlink:href="#b" x="20.996" y="15.172"/><use xlink:href="#1" y="2.171"/><use xlink:href="#9" y="4.342"/><use xlink:href="#10" y="8.684"/><use xlink:href="#1" y="13.026"/><use xlink:href="#14" y="15.197"/></svg><svg x="3440"><use xlink:href="#a"/><use xlink:href="#b" x="-.004" y="17.343"/><use xlink:href="#1" y="2.171"/><use xlink:href="#9" y="4.342"/><use xlink:href="#10" y="8.684"/><use xlink:href="#1" y="13.026"/><use xlink:href="#14" y="15.197"/></svg><svg x="3520"><use xlink:href="#a"/><use xlink:href="#b" x="-.004" y="19.514"/><use xlink:href="#1" y="2.171"/><use xlink:href="#9" y="4.342"/><use xlink:href="#10" y="8.684"/><use xlink:href="#1" y="13.026"/><use xlink:href="#14" y="15.197"/></svg><svg x="3600"><use xlink:href="#a"/><use xlink:href="#b" x="-.004" y="19.514"/><use xlink:href="#1" y="2.171"/><use xlink:href="#9" y="4.342"/><use xlink:href="#10" y="8.684"/><use xlink:href="#1" y="13.026"/><use xlink:href="#14" y="15.197"/></svg><svg x="3680"><use xlink:href="#a"/><use xlink:href="#b" x="-.004" y="21.685"/><use xlink:href="#1" y="2.171"/><use xlink:href="#9" y="4.342"/><use xlink:href="#10" y="8.684"/><use xlink:href="#1" y="13.026"/><use xlink:href="#14" y="15.197"/><use xlink:href="#15" y="19.539"/></svg><svg x="3760"><use xlink:href="#a"/><use xlink:href="#b" x="-.004" y="23.856"/><use xlink:href="#1" y="2.171"/><use xlink:href="#9" y="4.342"/><use xlink:href="#10" y="8.684"/><use xlink:href="#1" y="13.026"/><use xlink:href="#14" y="15.197"/><use xlink:href="#15" y="19.539"/></svg><svg x="3840"><use xlink:href="#a"/><use xlink:href="#b" x="-.004" y="23.856"/><use xlink:href="#1" y="2.171"/><use xlink:href="#9" y="4.342"/><use xlink:href="#10" y="8.684"/><use xlink:href="#1" y="13.026"/><use xlink:href="#14" y="15.197"/><use xlink:href="#15" y="19.539"/></svg><svg x="3920"><use xlink:href="#a"/><use xlink:href="#b" x="1.996" y="26.027"/><use xlink:href="#1" y="2.171"/><use xlink:href="#9" y="4.342"/><use xlink:href="#10" y="8.684"/><use xlink:href="#1" y="13.026"/><use xlink:href="#14" y="15.197"/><use xlink:href="#15" y="19.539"/><use xlink:href="#1" y="23.881"/><use xlink:href="#2" y="26.052"/></svg><svg x="4000"><use xlink:href="#a"/><use xlink:href="#b" x="1.996" y="26.027"/><use xlink:href="#1" y="2.171"/><use xlink:href="#9" y="4.342"/><use xlink:href="#10" y="8.684"/><use xlink:href="#1" y="13.026"/><use xlink:href="#14" y="15.197"/><use xlink:href="#15" y="19.539"/><use xlink:href="#1" y="23.881"/><use xlink:href="#2" y="26.052"/></svg><svg x="4080"><use xlink:href="#a"/><use xlink:href="#b" x="1.996" y="26.027"/><use xlink:href="#1" y="2.171"/><use xlink:href="#9" y="4.342"/><use xlink:href="#10" y="8.684"/><use xlink:href="#1" y="13.026"/><use xlink:href="#14" y="15.197"/><use xlink:href="#15" y="19.539"/><use xlink:href="#1" y="23.881"/><use xlink:href="#2" y="26.052"/></svg><svg x="4160"><use xlink:href="#a"/><use xlink:href="#b" x="2.996" y="26.027"/><use xlink:href="#1" y="2.171"/><use xlink:href="#9" y="4.342"/><use xlink:href="#10" y="8.684"/><use xlink:href="#1" y="13.026"/><use xlink:href="#14" y="15.197"/><use xlink:href="#15" y="19.539"/><use xlink:href="#1" y="23.881"/><use xlink:href="#3" y="26.052"/></svg><svg x="4240"><use xlink:href="#a"/><use xlink:href="#b" x="3.996" y="26.027"/><use xlink:href="#1" y="2.171"/><use xlink:href="#9" y="4.342"/><use xlink:href="#10" y="8.684"/><use xlink:href="#1" y="13.026"/><use xlink:href="#14" y="15.197"/><use xlink:href="#15" y="19.539"/><use xlink:href="#1" y="23.881"/><use xlink:href="#4" y="26.052"/></svg><svg x="4320"><use xlink:href="#a"/><use xlink:href="#b" x="4.996" y="26.027"/><use xlink:href="#1" y="2.171"/><use xlink:href="#9" y="4.342"/><use xlink:href="#10" y="8.684"/><use xlink:href="#1" y="13.026"/><use xlink:href="#14" y="15.197"/><use xlink:href="#15" y="19.539"/><use xlink:href="#1" y="23.881"/><use xlink:href="#5" y="26.052"/></svg><svg x="4400"><use xlink:href="#a"/><use xlink:href="#b" x="5.996" y="26.027"/><use xlink:href="#1" y="2.171"/><use xlink:href="#9" y="4.342"/><use xlink:href="#10" y="8.684"/><use xlink:href="#1" y="13.026"/><use xlink:href="#14" y="15.197"/><use xlink:href="#15" y="19.539"/><use xlink:href="#1" y="23.881"/><use xlink:href="#6" y="26.052"/></svg><svg x="4480"><use xlink:href="#a"/><use xlink:href="#b" x="6.996" y="26.027"/><use xlink:href="#1" y="2.171"/><use xlink:href="#9" y="4.342"/><use xlink:href="#10" y="8.684"/><use xlink:href="#1" y="13.026"/><use xlink:href="#14" y="15.197"/><use xlink:href="#15" y="19.539"/><use xlink:href="#1" y="23.881"/><use xlink:href="#7" y="26.052"/></svg><svg x="4560"><use xlink:href="#a"/><use xlink:href="#b" x="7.996" y="26.027"/><use xlink:href="#1" y="2.171"/><use xlink:href="#9" y="4.342"/><use xlink:href="#10" y="8.684"/><use xlink:href="#1" y="13.026"/><use xlink:href="#14" y="15.197"/><use xlink:href="#15" y="19.539"/><use xlink:href="#1" y="23.881"/><use xlink:href="#8" y="26.052"/></svg><svg x="4640"><use xlink:href="#a"/><use xlink:href="#b" x="8.996" y="26.027"/><use xlink:href="#1" y="2.171"/><use xlink:href="#9" y="4.342"/><use xlink:href="#10" y="8.684"/><use xlink:href="#1" y="13.026"/><use xlink:href="#14" y="15.197"/><use xlink:href="#15" y="19.539"/><use xlink:href="#1" y="23.881"/><use xlink:href="#9" y="26.052"/></svg><svg x="4720"><use xlink:href="#a"/><use xlink:href="#b" x="9.996" y="26.027"/><use xlink:href="#1" y="2.171"/><use xlink:href="#9" y="4.342"/><use xlink:href="#10" y="8.684"/><use xlink:href="#1" y="13.026"/><use xlink:href="#14" y="15.197"/><use xlink:href="#15" y="19.539"/><use xlink:href="#1" y="23.881"/><use xlink:href="#9" y="26.052"/></svg><svg x="4800"><use xlink:href="#a"/><use xlink:href="#b" x="10.996" y="26.027"/><use xlink:href="#1" y="2.171"/><use xlink:href="#9" y="4.342"/><use xlink:href="#10" y="8.684"/><use xlink:href="#1" y="13.026"/><use xlink:href="#14" y="15.197"/><use xlink:href="#15" y="19.539"/><use xlink:href="#1" y="23.881"/><use xlink:href="#11" y="26.052"/></svg><svg x="4880"><use xlink:href="#a"/><use xlink:href="#b" x="11.996" y="26.027"/><use xlink:href="#1" y="2.171"/><use xlink:href="#9" y="4.342"/><use xlink:href="#10" y="8.684"/><use xlink:href="#1" y="13.026"/><use xlink:href="#14" y="15.197"/><use xlink:href="#15" y="19.539"/><use xlink:href="#1" y="23.881"/><use xlink:href="#12" y="26.052"/></svg><svg x="4960"><use xlink:href="#a"/><use xlink:href="#b" x="12.996" y="26.027"/><use xlink:href="#1" y="2.171"/><use xlink:href="#9" y="4.342"/><use xlink:href="#10" y="8.684"/><use xlink:href="#1" y="13.026"/><use xlink:href="#14" y="15.197"/><use xlink:href="#15" y="19.539"/><use xlink:href="#1" y="23.881"/><text y="27.722" class="g">$</text><text x="2.004" y="27.722" class="f">samurai</text><text x="10.02" y="27.722" class="g">--n</text></svg><svg x="5040"><use xlink:href="#a"/><use xlink:href="#b" x="13.996" y="26.027"/><use xlink:href="#1" y="2.171"/><use xlink:href="#9" y="4.342"/><use xlink:href="#10" y="8.684"/><use xlink:href="#1" y="13.026"/><use xlink:href="#14" y="15.197"/><use xlink:href="#15" y="19.539"/><use xlink:href="#1" y="23.881"/><text y="27.722" class="g">$</text><text x="2.004" y="27.722" class="f">samurai</text><text x="10.02" y="27.722" class="g">--nu</text></svg><svg x="5120"><use xlink:href="#a"/><use xlink:href="#b" x="14.996" y="26.027"/><use xlink:href="#1" y="2.171"/><use xlink:href="#9" y="4.342"/><use xlink:href="#10" y="8.684"/><use xlink:href="#1" y="13.026"/><use xlink:href="#14" y="15.197"/><use xlink:href="#15" y="19.539"/><use xlink:href="#1" y="23.881"/><text y="27.722" class="g">$</text><text x="2.004" y="27.722" class="f">samurai</text><text x="10.02" y="27.722" class="g">--num</text></svg><svg x="5200"><use xlink:href="#a"/><use xlink:href="#b" x="15.996" y="26.027"/><use xlink:href="#1" y="2.171"/><use xlink:href="#9" y="4.342"/><use xlink:href="#10" y="8.684"/><use xlink:href="#1" y="13.026"/><use xlink:href="#14" y="15.197"/><use xlink:href="#15" y="19.539"/><use xlink:href="#1" y="23.881"/><text y="27.722" class="g">$</text><text x="2.004" y="27.722" class="f">samurai</text><text x="10.02" y="27.722" class="g">--numb</text></svg><svg x="5280"><use xlink:href="#a"/><use xlink:href="#b" x="16.996" y="26.027"/><use xlink:href="#1" y="2.171"/><use xlink:href="#9" y="4.342"/><use xlink:href="#10" y="8.684"/><use xlink:href="#1" y="13.026"/><use xlink:href="#14" y="15.197"/><use xlink:href="#15" y="19.539"/><use xlink:href="#1" y="23.881"/><text y="27.722" class="g">$</text><text x="2.004" y="27.722" class="f">samurai</text><text x="10.02" y="27.722" class="g">--numbe</text></svg><svg x="5360"><use xlink:href="#a"/><use xlink:href="#b" x="17.996" y="26.027"/><use xlink:href="#1" y="2.171"/><use xlink:href="#9" y="4.342"/><use xlink:href="#10" y="8.684"/><use xlink:href="#1" y="13.026"/><use xlink:href="#14" y="15.197"/><use xlink:href="#15" y="19.539"/><use xlink:href="#1" y="23.881"/><text y="27.722" class="g">$</text><text x="2.004" y="27.722" class="f">samurai</text><text x="10.02" y="27.722" class="g">--number</text></svg><svg x="5440"><use xlink:href="#a"/><use xlink:href="#b" x="18.996" y="26.027"/><use xlink:href="#1" y="2.171"/><use xlink:href="#9" y="4.342"/><use xlink:href="#10" y="8.684"/><use xlink:href="#1" y="13.026"/><use xlink:href="#14" y="15.197"/><use xlink:href="#15" y="19.539"/><use xlink:href="#1" y="23.881"/><text y="27.722" class="g">$</text><text x="2.004" y="27.722" class="f">samurai</text><text x="10.02" y="27.722" class="g">--numbere</text></svg><svg x="5520"><use xlink:href="#a"/><use xlink:href="#b" x="19.996" y="26.027"/><use xlink:href="#1" y="2.171"/><use xlink:href="#9" y="4.342"/><use xlink:href="#10" y="8.684"/><use xlink:href="#1" y="13.026"/><use xlink:href="#14" y="15.197"/><use xlink:href="#15" y="19.539"/><use xlink:href="#1" y="23.881"/><use xlink:href="#16" y="26.052"/></svg><svg x="5600"><use xlink:href="#a"/><use xlink:href="#b" x="20.996" y="26.027"/><use xlink:href="#1" y="2.171"/><use xlink:href="#9" y="4.342"/><use xlink:href="#10" y="8.684"/><use xlink:href="#1" y="13.026"/><use xlink:href="#14" y="15.197"/><use xlink:href="#15" y="19.539"/><use xlink:href="#1" y="23.881"/><use xlink:href="#16" y="26.052"/></svg><svg x="5680"><use xlink:href="#a"/><use xlink:href="#b" x="21.996" y="26.027"/><use xlink:href="#1" y="2.171"/><use xlink:href="#9" y="4.342"/><use xlink:href="#10" y="8.684"/><use xlink:href="#1" y="13.026"/><use xlink:href="#14" y="15.197"/><use xlink:href="#15" y="19.539"/><use xlink:href="#1" y="23.881"/><use xlink:href="#17" y="26.052"/></svg><svg x="5760"><use xlink:href="#a"/><use xlink:href="#b" x="21.996" y="26.027"/><use xlink:href="#1" y="2.171"/><use xlink:href="#9" y="4.342"/><use xlink:href="#10" y="8.684"/><use xlink:href="#1" y="13.026"/><use xlink:href="#14" y="15.197"/><use xlink:href="#15" y="19.539"/><use xlink:href="#1" y="23.881"/><use xlink:href="#17" y="26.052"/></svg><svg x="5840"><use xlink:href="#a"/><use xlink:href="#b" x="-.004" y="28.198"/><use xlink:href="#1" y="2.171"/><use xlink:href="#9" y="4.342"/><use xlink:href="#10" y="8.684"/><use xlink:href="#1" y="13.026"/><use xlink:href="#14" y="15.197"/><use xlink:href="#15" y="19.539"/><use xlink:href="#1" y="23.881"/><use xlink:href="#17" y="26.052"/></svg><svg x="5920"><use xlink:href="#a"/><use xlink:href="#b" x="-.004" y="30.369"/><use xlink:href="#1" y="2.171"/><use xlink:href="#9" y="4.342"/><use xlink:href="#10" y="8.684"/><use xlink:href="#1" y="13.026"/><use xlink:href="#14" y="15.197"/><use xlink:href="#15" y="19.539"/><use xlink:href="#1" y="23.881"/><use xlink:href="#17" y="26.052"/></svg><svg x="6000"><use xlink:href="#a"/><use xlink:href="#b" x="-.004" y="30.369"/><use xlink:href="#1" y="2.171"/><use xlink:href="#9" y="4.342"/><use xlink:href="#10" y="8.684"/><use xlink:href="#1" y="13.026"/><use xlink:href="#14" y="15.197"/><use xlink:href="#15" y="19.539"/><use xlink:href="#1" y="23.881"/><use xlink:href="#17" y="26.052"/></svg><svg x="6080"><use xlink:href="#a"/><use xlink:href="#b" x="-.004" y="32.54"/><use xlink:href="#1" y="2.171"/><use xlink:href="#9" y="4.342"/><use xlink:href="#10" y="8.684"/><use xlink:href="#1" y="13.026"/><use xlink:href="#14" y="15.197"/><use xlink:href="#15" y="19.539"/><use xlink:href="#1" y="23.881"/><use xlink:href="#17" y="26.052"/><use xlink:href="#18" y="30.394"/></svg><svg x="6160"><use xlink:href="#a"/><use xlink:href="#b" x="-.004" y="34.711"/><use xlink:href="#1" y="2.171"/><use xlink:href="#9" y="4.342"/><use xlink:href="#10" y="8.684"/><use xlink:href="#1" y="13.026"/><use xlink:href="#14" y="15.197"/><use xlink:href="#15" y="19.539"/><use xlink:href="#1" y="23.881"/><use xlink:href="#17" y="26.052"/><use xlink:href="#18" y="30.394"/></svg><svg x="6240"><use xlink:href="#a"/><use xlink:href="#b" x="-.004" y="34.711"/><use xlink:href="#1" y="2.171"/><use xlink:href="#9" y="4.342"/><use xlink:href="#10" y="8.684"/><use xlink:href="#1" y="13.026"/><use xlink:href="#14" y="15.197"/><use xlink:href="#15" y="19.539"/><use xlink:href="#1" y="23.881"/><use xlink:href="#17" y="26.052"/><use xlink:href="#18" y="30.394"/></svg><svg x="6320"><use xlink:href="#a"/><use xlink:href="#b" x="1.996" y="36.882"/><use xlink:href="#1" y="2.171"/><use xlink:href="#9" y="4.342"/><use xlink:href="#10" y="8.684"/><use xlink:href="#1" y="13.026"/><use xlink:href="#14" y="15.197"/><use xlink:href="#15" y="19.539"/><use xlink:href="#1" y="23.881"/><use xlink:href="#17" y="26.052"/><use xlink:href="#18" y="30.394"/><use xlink:href="#1" y="34.736"/><use xlink:href="#2" y="36.907"/></svg><svg x="6400"><use xlink:href="#a"/><use xlink:href="#b" x="1.996" y="36.882"/><use xlink:href="#1" y="2.171"/><use xlink:href="#9" y="4.342"/><use xlink:href="#10" y="8.684"/><use xlink:href="#1" y="13.026"/><use xlink:href="#14" y="15.197"/><use xlink:href="#15" y="19.539"/><use xlink:href="#1" y="23.881"/><use xlink:href="#17" y="26.052"/><use xlink:href="#18" y="30.394"/><use xlink:href="#1" y="34.736"/><use xlink:href="#2" y="36.907"/></svg><svg x="6480"><use xlink:href="#a"/><use xlink:href="#b" x="1.996" y="36.882"/><use xlink:href="#1" y="2.171"/><use xlink:href="#9" y="4.342"/><use xlink:href="#10" y="8.684"/><use xlink:href="#1" y="13.026"/><use xlink:href="#14" y="15.197"/><use xlink:href="#15" y="19.539"/><use xlink:href="#1" y="23.881"/><use xlink:href="#17" y="26.052"/><use xlink:href="#18" y="30.394"/><use xlink:href="#1" y="34.736"/><use xlink:href="#2" y="36.907"/></svg><svg x="6560"><use xlink:href="#a"/><use xlink:href="#b" x="2.996" y="36.882"/><use xlink:href="#1" y="2.171"/><use xlink:href="#9" y="4.342"/><use xlink:href="#10" y="8.684"/><use xlink:href="#1" y="13.026"/><use xlink:href="#14" y="15.197"/><use xlink:href="#15" y="19.539"/><use xlink:href="#1" y="23.881"/><use xlink:href="#17" y="26.052"/><use xlink:href="#18" y="30.394"/><use xlink:href="#1" y="34.736"/><use xlink:href="#3" y="36.907"/></svg><svg x="6640"><use xlink:href="#a"/><use xlink:href="#b" x="3.996" y="36.882"/><use xlink:href="#1" y="2.171"/><use xlink:href="#9" y="4.342"/><use xlink:href="#10" y="8.684"/><use xlink:href="#1" y="13.026"/><use xlink:href="#14" y="15.197"/><use xlink:href="#15" y="19.539"/><use xlink:href="#1" y="23.881"/><use xlink:href="#17" y="26.052"/><use xlink:href="#18" y="30.394"/><use xlink:href="#1" y="34.736"/><use xlink:href="#4" y="36.907"/></svg><svg x="6720"><use xlink:href="#a"/><use xlink:href="#b" x="4.996" y="36.882"/><use xlink:href="#1" y="2.171"/><use xlink:href="#9" y="4.342"/><use xlink:href="#10" y="8.684"/><use xlink:href="#1" y="13.026"/><use xlink:href="#14" y="15.197"/><use xlink:href="#15" y="19.539"/><use xlink:href="#1" y="23.881"/><use xlink:href="#17" y="26.052"/><use xlink:href="#18" y="30.394"/><use xlink:href="#1" y="34.736"/><use xlink:href="#5" y="36.907"/></svg><svg x="6800"><use xlink:href="#a"/><use xlink:href="#b" x="5.996" y="36.882"/><use xlink:href="#1" y="2.171"/><use xlink:href="#9" y="4.342"/><use xlink:href="#10" y="8.684"/><use xlink:href="#1" y="13.026"/><use xlink:href="#14" y="15.197"/><use xlink:href="#15" y="19.539"/><use xlink:href="#1" y="23.881"/><use xlink:href="#17" y="26.052"/><use xlink:href="#18" y="30.394"/><use xlink:href="#1" y="34.736"/><use xlink:href="#6" y="36.907"/></svg><svg x="6880"><use xlink:href="#a"/><use xlink:href="#b" x="6.996" y="36.882"/><use xlink:href="#1" y="2.171"/><use xlink:href="#9" y="4.342"/><use xlink:href="#10" y="8.684"/><use xlink:href="#1" y="13.026"/><use xlink:href="#14" y="15.197"/><use xlink:href="#15" y="19.539"/><use xlink:href="#1" y="23.881"/><use xlink:href="#17" y="26.052"/><use xlink:href="#18" y="30.394"/><use xlink:href="#1" y="34.736"/><use xlink:href="#7" y="36.907"/></svg><svg x="6960"><use xlink:href="#a"/><use xlink:href="#b" x="7.996" y="36.882"/><use xlink:href="#1" y="2.171"/><use xlink:href="#9" y="4.342"/><use xlink:href="#10" y="8.684"/><use xlink:href="#1" y="13.026"/><use xlink:href="#14" y="15.197"/><use xlink:href="#15" y="19.539"/><use xlink:href="#1" y="23.881"/><use xlink:href="#17" y="26.052"/><use xlink:href="#18" y="30.394"/><use xlink:href="#1" y="34.736"/><use xlink:href="#8" y="36.907"/></svg><svg x="7040"><use xlink:href="#a"/><use xlink:href="#b" x="8.996" y="36.882"/><use xlink:href="#1" y="2.171"/><use xlink:href="#9" y="4.342"/><use xlink:href="#10" y="8.684"/><use xlink:href="#1" y="13.026"/><use xlink:href="#14" y="15.197"/><use xlink:href="#15" y="19.539"/><use xlink:href="#1" y="23.881"/><use xlink:href="#17" y="26.052"/><use xlink:href="#18" y="30.394"/><use xlink:href="#1" y="34.736"/><use xlink:href="#9" y="36.907"/></svg><svg x="7120"><use xlink:href="#a"/><use xlink:href="#b" x="9.996" y="36.882"/><use xlink:href="#1" y="2.171"/><use xlink:href="#9" y="4.342"/><use xlink:href="#10" y="8.684"/><use xlink:href="#1" y="13.026"/><use xlink:href="#14" y="15.197"/><use xlink:href="#15" y="19.539"/><use xlink:href="#1" y="23.881"/><use xlink:href="#17" y="26.052"/><use xlink:href="#18" y="30.394"/><use xlink:href="#1" y="34.736"/><use xlink:href="#9" y="36.907"/></svg><svg x="7200"><use xlink:href="#a"/><use xlink:href="#b" x="10.996" y="36.882"/><use xlink:href="#1" y="2.171"/><use xlink:href="#9" y="4.342"/><use xlink:href="#10" y="8.684"/><use xlink:href="#1" y="13.026"/><use xlink:href="#14" y="15.197"/><use xlink:href="#15" y="19.539"/><use xlink:href="#1" y="23.881"/><use xlink:href="#17" y="26.052"/><use xlink:href="#18" y="30.394"/><use xlink:href="#1" y="34.736"/><use xlink:href="#11" y="36.907"/></svg><svg x="7280"><use xlink:href="#a"/><use xlink:href="#b" x="11.996" y="36.882"/><use xlink:href="#1" y="2.171"/><use xlink:href="#9" y="4.342"/><use xlink:href="#10" y="8.684"/><use xlink:href="#1" y="13.026"/><use xlink:href="#14" y="15.197"/><use xlink:href="#15" y="19.539"/><use xlink:href="#1" y="23.881"/><use xlink:href="#17" y="26.052"/><use xlink:href="#18" y="30.394"/><use xlink:href="#1" y="34.736"/><use xlink:href="#12" y="36.907"/></svg><svg x="7360"><use xlink:href="#a"/><use xlink:href="#b" x="12.996" y="36.882"/><use xlink:href="#1" y="2.171"/><use xlink:href="#9" y="4.342"/><use xlink:href="#10" y="8.684"/><use xlink:href="#1" y="13.026"/><use xlink:href="#14" y="15.197"/><use xlink:href="#15" y="19.539"/><use xlink:href="#1" y="23.881"/><use xlink:href="#17" y="26.052"/><use xlink:href="#18" y="30.394"/><use xlink:href="#1" y="34.736"/><text y="38.577" class="g">$</text><text x="2.004" y="38.577" class="f">samurai</text><text x="10.02" y="38.577" class="g">--c</text></svg><svg x="7440"><use xlink:href="#a"/><use xlink:href="#b" x="13.996" y="36.882"/><use xlink:href="#1" y="2.171"/><use xlink:href="#9" y="4.342"/><use xlink:href="#10" y="8.684"/><use xlink:href="#1" y="13.026"/><use xlink:href="#14" y="15.197"/><use xlink:href="#15" y="19.539"/><use xlink:href="#1" y="23.881"/><use xlink:href="#17" y="26.052"/><use xlink:href="#18" y="30.394"/><use xlink:href="#1" y="34.736"/><text y="38.577" class="g">$</text><text x="2.004" y="38.577" class="f">samurai</text><text x="10.02" y="38.577" class="g">--co</text></svg><svg x="7520"><use xlink:href="#a"/><use xlink:href="#b" x="14.996" y="36.882"/><use xlink:href="#1" y="2.171"/><use xlink:href="#9" y="4.342"/><use xlink:href="#10" y="8.684"/><use xlink:href="#1" y="13.026"/><use xlink:href="#14" y="15.197"/><use xlink:href="#15" y="19.539"/><use xlink:href="#1" y="23.881"/><use xlink:href="#17" y="26.052"/><use xlink:href="#18" y="30.394"/><use xlink:href="#1" y="34.736"/><text y="38.577" class="g">$</text><text x="2.004" y="38.577" class="f">samurai</text><text x="10.02" y="38.577" class="g">--cop</text></svg><svg x="7600"><use xlink:href="#a"/><use xlink:href="#b" x="15.996" y="36.882"/><use xlink:href="#1" y="2.171"/><use xlink:href="#9" y="4.342"/><use xlink:href="#10" y="8.684"/><use xlink:href="#1" y="13.026"/><use xlink:href="#14" y="15.197"/><use xlink:href="#15" y="19.539"/><use xlink:href="#1" y="23.881"/><use xlink:href="#17" y="26.052"/><use xlink:href="#18" y="30.394"/><use xlink:href="#1" y="34.736"/><use xlink:href="#19" y="36.907"/></svg><svg x="7680"><use xlink:href="#a"/><use xlink:href="#b" x="15.996" y="36.882"/><use xlink:href="#1" y="2.171"/><use xlink:href="#9" y="4.342"/><use xlink:href="#10" y="8.684"/><use xlink:href="#1" y="13.026"/><use xlink:href="#14" y="15.197"/><use xlink:href="#15" y="19.539"/><use xlink:href="#1" y="23.881"/><use xlink:href="#17" y="26.052"/><use xlink:href="#18" y="30.394"/><use xlink:href="#1" y="34.736"/><use xlink:href="#19" y="36.907"/></svg><svg x="7760"><use xlink:href="#a"/><use xlink:href="#b" x="-.004" y="39.053"/><use xlink:href="#1" y="2.171"/><use xlink:href="#9" y="4.342"/><use xlink:href="#10" y="8.684"/><use xlink:href="#1" y="13.026"/><use xlink:href="#14" y="15.197"/><use xlink:href="#15" y="19.539"/><use xlink:href="#1" y="23.881"/><use xlink:href="#17" y="26.052"/><use xlink:href="#18" y="30.394"/><use xlink:href="#1" y="34.736"/><use xlink:href="#19" y="36.907"/></svg><svg x="7840"><use xlink:href="#a"/><use xlink:href="#b" x="-.004" y="41.224"/><use xlink:href="#1" y="2.171"/><use xlink:href="#9" y="4.342"/><use xlink:href="#10" y="8.684"/><use xlink:href="#1" y="13.026"/><use xlink:href="#14" y="15.197"/><use xlink:href="#15" y="19.539"/><use xlink:href="#1" y="23.881"/><use xlink:href="#17" y="26.052"/><use xlink:href="#18" y="30.394"/><use xlink:href="#1" y="34.736"/><use xlink:href="#19" y="36.907"/></svg><svg x="7920"><use xlink:href="#a"/><use xlink:href="#b" x="-.004" y="41.224"/><use xlink:href="#1" y="2.171"/><use xlink:href="#9" y="4.342"/><use xlink:href="#10" y="8.684"/><use xlink:href="#1" y="13.026"/><use xlink:href="#14" y="15.197"/><use xlink:href="#15" y="19.539"/><use xlink:href="#1" y="23.881"/><use xlink:href="#17" y="26.052"/><use xlink:href="#18" y="30.394"/><use xlink:href="#1" y="34.736"/><use xlink:href="#19" y="36.907"/></svg><svg x="8000"><use xlink:href="#a"/><use xlink:href="#b" x="-.004" y="43.395"/><use xlink:href="#1" y="2.171"/><use xlink:href="#9" y="4.342"/><use xlink:href="#10" y="8.684"/><use xlink:href="#1" y="13.026"/><use xlink:href="#14" y="15.197"/><use xlink:href="#15" y="19.539"/><use xlink:href="#1" y="23.881"/><use xlink:href="#17" y="26.052"/><use xlink:href="#18" y="30.394"/><use xlink:href="#1" y="34.736"/><use xlink:href="#19" y="36.907"/><use xlink:href="#20" y="41.249"/></svg><svg x="8080"><use xlink:href="#a"/><use xlink:href="#b" x="-.004" y="45.566"/><use xlink:href="#1" y="2.171"/><use xlink:href="#9" y="4.342"/><use xlink:href="#10" y="8.684"/><use xlink:href="#1" y="13.026"/><use xlink:href="#14" y="15.197"/><use xlink:href="#15" y="19.539"/><use xlink:href="#1" y="23.881"/><use xlink:href="#17" y="26.052"/><use xlink:href="#18" y="30.394"/><use xlink:href="#1" y="34.736"/><use xlink:href="#19" y="36.907"/><use xlink:href="#20" y="41.249"/></svg><svg x="8160"><use xlink:href="#a"/><use xlink:href="#b" x="-.004" y="45.566"/><use xlink:href="#1" y="2.171"/><use xlink:href="#9" y="4.342"/><use xlink:href="#10" y="8.684"/><use xlink:href="#1" y="13.026"/><use xlink:href="#14" y="15.197"/><use xlink:href="#15" y="19.539"/><use xlink:href="#1" y="23.881"/><use xlink:href="#17" y="26.052"/><use xlink:href="#18" y="30.394"/><use xlink:href="#1" y="34.736"/><use xlink:href="#19" y="36.907"/><use xlink:href="#20" y="41.249"/></svg><svg x="8240"><use xlink:href="#a"/><use xlink:href="#b" x="1.996" y="47.737"/><use xlink:href="#1" y="2.171"/><use xlink:href="#9" y="4.342"/><use xlink:href="#10" y="8.684"/><use xlink:href="#1" y="13.026"/><use xlink:href="#14" y="15.197"/><use xlink:href="#15" y="19.539"/><use xlink:href="#1" y="23.881"/><use xlink:href="#17" y="26.052"/><use xlink:href="#18" y="30.394"/><use xlink:href="#1" y="34.736"/><use xlink:href="#19" y="36.907"/><use xlink:href="#20" y="41.249"/><use xlink:href="#1" y="45.591"/><use xlink:href="#2" y="47.762"/></svg><svg x="8320"><use xlink:href="#a"/><use xlink:href="#b" x="1.996" y="47.737"/><use xlink:href="#1" y="2.171"/><use xlink:href="#9" y="4.342"/><use xlink:href="#10" y="8.684"/><use xlink:href="#1" y="13.026"/><use xlink:href="#14" y="15.197"/><use xlink:href="#15" y="19.539"/><use xlink:href="#1" y="23.881"/><use xlink:href="#17" y="26.052"/><use xlink:href="#18" y="30.394"/><use xlink:href="#1" y="34.736"/><use xlink:href="#19" y="36.907"/><use xlink:href="#20" y="41.249"/><use xlink:href="#1" y="45.591"/><use xlink:href="#2" y="47.762"/></svg><svg x="8400"><use xlink:href="#a"/><use xlink:href="#b" x="1.996" y="47.737"/><use xlink:href="#1" y="2.171"/><use xlink:href="#9" y="4.342"/><use xlink:href="#10" y="8.684"/><use xlink:href="#1" y="13.026"/><use xlink:href="#14" y="15.197"/><use xlink:href="#15" y="19.539"/><use xlink:href="#1" y="23.881"/><use xlink:href="#17" y="26.052"/><use xlink:href="#18" y="30.394"/><use xlink:href="#1" y="34.736"/><use xlink:href="#19" y="36.907"/><use xlink:href="#20" y="41.249"/><use xlink:href="#1" y="45.591"/><use xlink:href="#2" y="47.762"/></svg><svg x="8480"><use xlink:href="#a"/><use xlink:href="#b" x="-.004" y="47.737"/><use xlink:href="#1"/><use xlink:href="#9" y="2.171"/><use xlink:href="#10" y="6.513"/><use xlink:href="#1" y="10.855"/><use xlink:href="#14" y="13.026"/><use xlink:href="#15" y="17.368"/><use xlink:href="#1" y="21.71"/><use xlink:href="#17" y="23.881"/><use xlink:href="#18" y="28.223"/><use xlink:href="#1" y="32.565"/><use xlink:href="#19" y="34.736"/><use xlink:href="#20" y="39.078"/><use xlink:href="#1" y="43.42"/><use xlink:href="#2" y="45.591"/></svg></svg></g></g></svg></svg>