<svg xmlns="http://www.w3.org/2000/svg" xmlns:xlink="http://www.w3.org/1999/xlink" width="1070" height="581.04"><rect width="1070" height="581.04" rx="5" ry="5" class="a"/><svg y="0%" x="0%"><circle cx="20" cy="20" r="6" fill="#ff5f58"/><circle cx="40" cy="20" r="6" fill="#ffbd2e"/><circle cx="60" cy="20" r="6" fill="#18c132"/></svg><svg height="521.04" viewBox="0 0 103 52.104" width="1030" x="15" xmlns="http://www.w3.org/2000/svg" xmlns:xlink="http://www.w3.org/1999/xlink" y="50"><style>@keyframes l{0%{transform:translateX(0)}.58%{transform:translateX(-103px)}.66%{transform:translateX(-412px)}.67%{transform:translateX(-515px)}4%{transform:translateX(-618px)}4.4%{transform:translateX(-721px)}5.14%{transform:translateX(-824px)}6.23%{transform:translateX(-927px)}7.49%{transform:translateX(-1030px)}7.9%{transform:translateX(-1133px)}8.98%{transform:translateX(-1236px)}11.57%{transform:translateX(-1339px)}11.58%{transform:translateX(-1648px)}11.6%{transform:translateX(-1957px)}11.66%{transform:translateX(-2369px)}15.01%{transform:translateX(-2472px)}15.38%{transform:translateX(-2575px)}16.04%{transform:translateX(-2678px)}17.15%{transform:translateX(-2781px)}18.42%{transform:translateX(-2884px)}19.03%{transform:translateX(-2987px)}19.91%{transform:translateX(-3090px)}20.69%{transform:translateX(-3193px)}21.79%{transform:translateX(-3296px)}23.07%{transform:translateX(-3399px)}23.77%{transform:translateX(-3502px)}24.95%{transform:translateX(-3605px)}26.09%{transform:translateX(-3708px)}26.11%{transform:translateX(-4017px)}26.13%{transform:translateX(-4326px)}26.19%{transform:translateX(-4635px)}26.2%{transform:translateX(-4738px)}29.67%{transform:translateX(-4841px)}30%{transform:translateX(-4944px)}30.84%{transform:translateX(-5047px)}32.06%{transform:translateX(-5150px)}33.29%{transform:translateX(-5253px)}33.86%{transform:translateX(-5356px)}34.81%{transform:translateX(-5459px)}35.52%{transform:translateX(-5562px)}37.21%{transform:translateX(-5665px)}38.55%{transform:translateX(-5768px)}39.18%{transform:translateX(-5871px)}40.04%{transform:translateX(-5974px)}40.71%{transform:translateX(-6077px)}42.43%{transform:translateX(-6180px)}42.45%{transform:translateX(-6592px)}42.47%{transform:translateX(-6901px)}42.53%{transform:translateX(-7210px)}42.54%{transform:translateX(-7313px)}48.61%{transform:translateX(-7416px)}48.98%{transform:translateX(-7519px)}49.6%{transform:translateX(-7622px)}50.83%{transform:translateX(-7725px)}52.12%{transform:translateX(-7828px)}52.67%{transform:translateX(-7931px)}53.57%{transform:translateX(-8034px)}54.28%{transform:translateX(-8137px)}55.63%{transform:translateX(-8240px)}58.49%{transform:translateX(-8343px)}59.86%{transform:translateX(-8446px)}64.17%{transform:translateX(-8549px)}64.79%{transform:translateX(-8652px)}66.19%{transform:translateX(-8755px)}67.49%{transform:translateX(-8858px)}69.02%{transform:translateX(-8961px)}70.19%{transform:translateX(-9064px)}71.09%{transform:translateX(-9167px)}72.86%{transform:translateX(-9270px)}74.14%{transform:translateX(-9373px)}75.51%{transform:translateX(-9476px)}76.88%{transform:translateX(-9579px)}77.73%{transform:translateX(-9682px)}78.53%{transform:translateX(-9785px)}81.26%{transform:translateX(-9888px)}81.29%{transform:translateX(-9991px)}81.3%{transform:translateX(-10197px)}81.31%{transform:translateX(-10506px)}81.38%{transform:translateX(-10918px)}to{transform:translateX(-11021px)}}.a{fill:#282d35}.f,.g,.i{fill:#a8cc8c;white-space:pre}.g,.i{fill:#b9c0cb}.i{fill:#e88388;font-weight:700}</style><g font-family="Monaco,Consolas,Menlo,'Bitstream Vera Sans Mono','Powerline Symbols',monospace" font-size="1.67"><defs><symbol id="1"><text y="1.67" class="f">Wollemat</text><text x="9.018" y="1.67" class="g">-</text><text x="11.022" y="1.67" style="white-space:pre" fill="#71bef2">/Users/Wollemat/Documents</text></symbol><symbol id="2"><text y="1.67" class="g">$</text></symbol><symbol id="3"><text y="1.67" class="g">$</text><text x="2.004" y="1.67" class="i">s</text></symbol><symbol id="4"><text y="1.67" class="g">$</text><text x="2.004" y="1.67" class="f">sa</text></symbol><symbol id="5"><text y="1.67" class="g">$</text><text x="2.004" y="1.67" class="i">sam</text></symbol><symbol id="6"><text y="1.67" class="g">$</text><text x="2.004" y="1.67" class="i">samu</text></symbol><symbol id="7"><text y="1.67" class="g">$</text><text x="2.004" y="1.67" class="i">samur</text></symbol><symbol id="8"><text y="1.67" class="g">$</text><text x="2.004" y="1.67" class="i">samura</text></symbol><symbol id="9"><text y="1.67" class="g">$</text><text x="2.004" y="1.67" class="f">samurai</text></symbol><symbol id="10"><text y="1.67" class="g">tetigetaneli</text></symbol><symbol id="11"><text y="1.67" class="g">$</text><text x="2.004" y="1.67" class="f">samurai</text><text x="10.02" y="1.67" class="g">-</text></symbol><symbol id="12"><text y="1.67" class="g">$</text><text x="2.004" y="1.67" class="f">samurai</text><text x="10.02" y="1.67" class="g">-x</text></symbol><symbol id="13"><text y="1.67" class="g">$</text><text x="2.004" y="1.67" class="f">samurai</text><text x="10.02" y="1.67" class="g">-x</text><text x="13.026" y="1.67" class="g">3</text></symbol><symbol id="14"><text y="1.67" class="g">rowutoxexyxy</text></symbol><symbol id="15"><text y="1.67" class="g">suqupevuwiza</text></symbol><symbol id="16"><text y="1.67" class="g">defunoqutiqa</text></symbol><symbol id="17"><text y="1.67" class="g">$</text><text x="2.004" y="1.67" class="f">samurai</text><text x="10.02" y="1.67" class="g">-c</text></symbol><symbol id="18"><text y="1.67" class="g">$</text><text x="2.004" y="1.67" class="f">samurai</text><text x="10.02" y="1.67" class="g">-c</text><text x="13.026" y="1.67" class="g">-s</text></symbol><symbol id="19"><text y="1.67" class="g">Zunibehytup$</text></symbol><symbol id="20"><text y="1.67" class="g">$</text><text x="2.004" y="1.67" class="f">samurai</text><text x="10.02" y="1.67" class="g">-l</text></symbol><symbol id="21"><text y="1.67" class="g">$</text><text x="2.004" y="1.67" class="f">samurai</text><text x="10.02" y="1.67" class="g">-l</text><text x="13.026" y="1.67" class="g">30</text></symbol><symbol id="22"><text y="1.67" class="g">$</text><text x="2.004" y="1.67" class="f">samurai</text><text x="10.02" y="1.67" class="g">-l</text><text x="13.026" y="1.67" class="g">30</text><text x="16.032" y="1.67" class="g">-n</text></symbol><symbol id="23"><text y="1.67" class="g">$</text><text x="2.004" y="1.67" class="f">samurai</text><text x="10.02" y="1.67" class="g">-l</text><text x="13.026" y="1.67" class="g">30</text><text x="16.032" y="1.67" class="g">-n</text><text x="19.038" y="1.67" class="g">4</text></symbol><symbol id="24"><text y="1.67" class="g">$</text><text x="2.004" y="1.67" class="f">samurai</text><text x="10.02" y="1.67" class="g">-l</text><text x="13.026" y="1.67" class="g">30</text><text x="16.032" y="1.67" class="g">-n</text><text x="19.038" y="1.67" class="g">4</text><text x="21.042" y="1.67" class="g">-c</text></symbol><symbol id="25"><text y="1.67" class="g">$</text><text x="2.004" y="1.67" class="f">samurai</text><text x="10.02" y="1.67" class="g">-l</text><text x="13.026" y="1.67" class="g">30</text><text x="16.032" y="1.67" class="g">-n</text><text x="19.038" y="1.67" class="g">4</text><text x="21.042" y="1.67" class="g">-c</text><text x="24.048" y="1.67" class="g">-s</text></symbol><symbol id="26"><text y="1.67" class="g">Piwimokuqekiratyfikyfexab?9551</text></symbol><symbol id="a"><path fill="transparent" d="M0 0h103v25H0z"/></symbol><symbol id="b"><path fill="#6f7683" d="M0 0h1.102v2.171H0z"/></symbol></defs><path class="a" d="M0 0h103v52.104H0z"/><g style="animation-duration:18.766984s;animation-iteration-count:infinite;animation-name:l;animation-timing-function:steps(1,end)"><svg width="11124"><svg><use xlink:href="#a"/><use xlink:href="#b" x="-.004"/></svg><svg x="103"><use xlink:href="#a"/><use xlink:href="#b" x="-.004" y="2.146"/></svg><svg x="206"><use xlink:href="#a"/><use xlink:href="#b" x="-.004" y="2.146"/></svg><svg x="309"><use xlink:href="#a"/><use xlink:href="#b" x="1.996" y="4.317"/><use xlink:href="#1" y="2.171"/><use xlink:href="#2" y="4.342"/></svg><svg x="412"><use xlink:href="#a"/><use xlink:href="#b" x="1.996" y="4.317"/><use xlink:href="#1" y="2.171"/><use xlink:href="#2" y="4.342"/></svg><svg x="515"><use xlink:href="#a"/><use xlink:href="#b" x="1.996" y="4.317"/><use xlink:href="#1" y="2.171"/><use xlink:href="#2" y="4.342"/></svg><svg x="618"><use xlink:href="#a"/><use xlink:href="#b" x="2.996" y="4.317"/><use xlink:href="#1" y="2.171"/><use xlink:href="#3" y="4.342"/></svg><svg x="721"><use xlink:href="#a"/><use xlink:href="#b" x="3.996" y="4.317"/><use xlink:href="#1" y="2.171"/><use xlink:href="#4" y="4.342"/></svg><svg x="824"><use xlink:href="#a"/><use xlink:href="#b" x="4.996" y="4.317"/><use xlink:href="#1" y="2.171"/><use xlink:href="#5" y="4.342"/></svg><svg x="927"><use xlink:href="#a"/><use xlink:href="#b" x="5.996" y="4.317"/><use xlink:href="#1" y="2.171"/><use xlink:href="#6" y="4.342"/></svg><svg x="1030"><use xlink:href="#a"/><use xlink:href="#b" x="6.996" y="4.317"/><use xlink:href="#1" y="2.171"/><use xlink:href="#7" y="4.342"/></svg><svg x="1133"><use xlink:href="#a"/><use xlink:href="#b" x="7.996" y="4.317"/><use xlink:href="#1" y="2.171"/><use xlink:href="#8" y="4.342"/></svg><svg x="1236"><use xlink:href="#a"/><use xlink:href="#b" x="8.996" y="4.317"/><use xlink:href="#1" y="2.171"/><use xlink:href="#9" y="4.342"/></svg><svg x="1339"><use xlink:href="#a"/><use xlink:href="#b" x="8.996" y="4.317"/><use xlink:href="#1" y="2.171"/><use xlink:href="#9" y="4.342"/></svg><svg x="1442"><use xlink:href="#a"/><use xlink:href="#b" x="-.004" y="6.488"/><use xlink:href="#1" y="2.171"/><use xlink:href="#9" y="4.342"/></svg><svg x="1545"><use xlink:href="#a"/><use xlink:href="#b" x="-.004" y="8.659"/><use xlink:href="#1" y="2.171"/><use xlink:href="#9" y="4.342"/></svg><svg x="1648"><use xlink:href="#a"/><use xlink:href="#b" x="-.004" y="8.659"/><use xlink:href="#1" y="2.171"/><use xlink:href="#9" y="4.342"/></svg><svg x="1751"><use xlink:href="#a"/><use xlink:href="#b" x="-.004" y="10.83"/><use xlink:href="#1" y="2.171"/><use xlink:href="#9" y="4.342"/><use xlink:href="#10" y="8.684"/></svg><svg x="1854"><use xlink:href="#a"/><use xlink:href="#b" x="-.004" y="10.83"/><use xlink:href="#1" y="2.171"/><use xlink:href="#9" y="4.342"/><use xlink:href="#10" y="8.684"/></svg><svg x="1957"><use xlink:href="#a"/><use xlink:href="#b" x="-.004" y="13.001"/><use xlink:href="#1" y="2.171"/><use xlink:href="#9" y="4.342"/><use xlink:href="#10" y="8.684"/></svg><svg x="2060"><use xlink:href="#a"/><use xlink:href="#b" x="-.004" y="13.001"/><use xlink:href="#1" y="2.171"/><use xlink:href="#9" y="4.342"/><use xlink:href="#10" y="8.684"/></svg><svg x="2163"><use xlink:href="#a"/><use xlink:href="#b" x="1.996" y="15.172"/><use xlink:href="#1" y="2.171"/><use xlink:href="#9" y="4.342"/><use xlink:href="#10" y="8.684"/><use xlink:href="#1" y="13.026"/><use xlink:href="#2" y="15.197"/></svg><svg x="2266"><use xlink:href="#a"/><use xlink:href="#b" x="1.996" y="15.172"/><use xlink:href="#1" y="2.171"/><use xlink:href="#9" y="4.342"/><use xlink:href="#10" y="8.684"/><use xlink:href="#1" y="13.026"/><use xlink:href="#2" y="15.197"/></svg><svg x="2369"><use xlink:href="#a"/><use xlink:href="#b" x="1.996" y="15.172"/><use xlink:href="#1" y="2.171"/><use xlink:href="#9" y="4.342"/><use xlink:href="#10" y="8.684"/><use xlink:href="#1" y="13.026"/><use xlink:href="#2" y="15.197"/></svg><svg x="2472"><use xlink:href="#a"/><use xlink:href="#b" x="2.996" y="15.172"/><use xlink:href="#1" y="2.171"/><use xlink:href="#9" y="4.342"/><use xlink:href="#10" y="8.684"/><use xlink:href="#1" y="13.026"/><use xlink:href="#3" y="15.197"/></svg><svg x="2575"><use xlink:href="#a"/><use xlink:href="#b" x="3.996" y="15.172"/><use xlink:href="#1" y="2.171"/><use xlink:href="#9" y="4.342"/><use xlink:href="#10" y="8.684"/><use xlink:href="#1" y="13.026"/><use xlink:href="#4" y="15.197"/></svg><svg x="2678"><use xlink:href="#a"/><use xlink:href="#b" x="4.996" y="15.172"/><use xlink:href="#1" y="2.171"/><use xlink:href="#9" y="4.342"/><use xlink:href="#10" y="8.684"/><use xlink:href="#1" y="13.026"/><use xlink:href="#5" y="15.197"/></svg><svg x="2781"><use xlink:href="#a"/><use xlink:href="#b" x="5.996" y="15.172"/><use xlink:href="#1" y="2.171"/><use xlink:href="#9" y="4.342"/><use xlink:href="#10" y="8.684"/><use xlink:href="#1" y="13.026"/><use xlink:href="#6" y="15.197"/></svg><svg x="2884"><use xlink:href="#a"/><use xlink:href="#b" x="6.996" y="15.172"/><use xlink:href="#1" y="2.171"/><use xlink:href="#9" y="4.342"/><use xlink:href="#10" y="8.684"/><use xlink:href="#1" y="13.026"/><use xlink:href="#7" y="15.197"/></svg><svg x="2987"><use xlink:href="#a"/><use xlink:href="#b" x="7.996" y="15.172"/><use xlink:href="#1" y="2.171"/><use xlink:href="#9" y="4.342"/><use xlink:href="#10" y="8.684"/><use xlink:href="#1" y="13.026"/><use xlink:href="#8" y="15.197"/></svg><svg x="3090"><use xlink:href="#a"/><use xlink:href="#b" x="8.996" y="15.172"/><use xlink:href="#1" y="2.171"/><use xlink:href="#9" y="4.342"/><use xlink:href="#10" y="8.684"/><use xlink:href="#1" y="13.026"/><use xlink:href="#9" y="15.197"/></svg><svg x="3193"><use xlink:href="#a"/><use xlink:href="#b" x="9.996" y="15.172"/><use xlink:href="#1" y="2.171"/><use xlink:href="#9" y="4.342"/><use xlink:href="#10" y="8.684"/><use xlink:href="#1" y="13.026"/><use xlink:href="#9" y="15.197"/></svg><svg x="3296"><use xlink:href="#a"/><use xlink:href="#b" x="10.996" y="15.172"/><use xlink:href="#1" y="2.171"/><use xlink:href="#9" y="4.342"/><use xlink:href="#10" y="8.684"/><use xlink:href="#1" y="13.026"/><use xlink:href="#11" y="15.197"/></svg><svg x="3399"><use xlink:href="#a"/><use xlink:href="#b" x="11.996" y="15.172"/><use xlink:href="#1" y="2.171"/><use xlink:href="#9" y="4.342"/><use xlink:href="#10" y="8.684"/><use xlink:href="#1" y="13.026"/><use xlink:href="#12" y="15.197"/></svg><svg x="3502"><use xlink:href="#a"/><use xlink:href="#b" x="12.996" y="15.172"/><use xlink:href="#1" y="2.171"/><use xlink:href="#9" y="4.342"/><use xlink:href="#10" y="8.684"/><use xlink:href="#1" y="13.026"/><use xlink:href="#12" y="15.197"/></svg><svg x="3605"><use xlink:href="#a"/><use xlink:href="#b" x="13.996" y="15.172"/><use xlink:href="#1" y="2.171"/><use xlink:href="#9" y="4.342"/><use xlink:href="#10" y="8.684"/><use xlink:href="#1" y="13.026"/><use xlink:href="#13" y="15.197"/></svg><svg x="3708"><use xlink:href="#a"/><use xlink:href="#b" x="13.996" y="15.172"/><use xlink:href="#1" y="2.171"/><use xlink:href="#9" y="4.342"/><use xlink:href="#10" y="8.684"/><use xlink:href="#1" y="13.026"/><use xlink:href="#13" y="15.197"/></svg><svg x="3811"><use xlink:href="#a"/><use xlink:href="#b" x="-.004" y="17.343"/><use xlink:href="#1" y="2.171"/><use xlink:href="#9" y="4.342"/><use xlink:href="#10" y="8.684"/><use xlink:href="#1" y="13.026"/><use xlink:href="#13" y="15.197"/></svg><svg x="3914"><use xlink:href="#a"/><use xlink:href="#b" x="-.004" y="19.514"/><use xlink:href="#1" y="2.171"/><use xlink:href="#9" y="4.342"/><use xlink:href="#10" y="8.684"/><use xlink:href="#1" y="13.026"/><use xlink:href="#13" y="15.197"/></svg><svg x="4017"><use xlink:href="#a"/><use xlink:href="#b" x="-.004" y="19.514"/><use xlink:href="#1" y="2.171"/><use xlink:href="#9" y="4.342"/><use xlink:href="#10" y="8.684"/><use xlink:href="#1" y="13.026"/><use xlink:href="#13" y="15.197"/></svg><svg x="4120"><use xlink:href="#a"/><use xlink:href="#b" x="-.004" y="26.027"/><use xlink:href="#1" y="2.171"/><use xlink:href="#9" y="4.342"/><use xlink:href="#10" y="8.684"/><use xlink:href="#1" y="13.026"/><use xlink:href="#13" y="15.197"/><use xlink:href="#14" y="19.539"/><use xlink:href="#15" y="21.71"/><use xlink:href="#16" y="23.881"/></svg><svg x="4223"><use xlink:href="#a"/><use xlink:href="#b" x="-.004" y="26.027"/><use xlink:href="#1" y="2.171"/><use xlink:href="#9" y="4.342"/><use xlink:href="#10" y="8.684"/><use xlink:href="#1" y="13.026"/><use xlink:href="#13" y="15.197"/><use xlink:href="#14" y="19.539"/><use xlink:href="#15" y="21.71"/><use xlink:href="#16" y="23.881"/></svg><svg x="4326"><use xlink:href="#a"/><use xlink:href="#b" x="-.004" y="28.198"/><use xlink:href="#1" y="2.171"/><use xlink:href="#9" y="4.342"/><use xlink:href="#10" y="8.684"/><use xlink:href="#1" y="13.026"/><use xlink:href="#13" y="15.197"/><use xlink:href="#14" y="19.539"/><use xlink:href="#15" y="21.71"/><use xlink:href="#16" y="23.881"/></svg><svg x="4429"><use xlink:href="#a"/><use xlink:href="#b" x="-.004" y="28.198"/><use xlink:href="#1" y="2.171"/><use xlink:href="#9" y="4.342"/><use xlink:href="#10" y="8.684"/><use xlink:href="#1" y="13.026"/><use xlink:href="#13" y="15.197"/><use xlink:href="#14" y="19.539"/><use xlink:href="#15" y="21.71"/><use xlink:href="#16" y="23.881"/></svg><svg x="4532"><use xlink:href="#a"/><use xlink:href="#b" x="1.996" y="30.369"/><use xlink:href="#1" y="2.171"/><use xlink:href="#9" y="4.342"/><use xlink:href="#10" y="8.684"/><use xlink:href="#1" y="13.026"/><use xlink:href="#13" y="15.197"/><use xlink:href="#14" y="19.539"/><use xlink:href="#15" y="21.71"/><use xlink:href="#16" y="23.881"/><use xlink:href="#1" y="28.223"/><use xlink:href="#2" y="30.394"/></svg><svg x="4635"><use xlink:href="#a"/><use xlink:href="#b" x="1.996" y="30.369"/><use xlink:href="#1" y="2.171"/><use xlink:href="#9" y="4.342"/><use xlink:href="#10" y="8.684"/><use xlink:href="#1" y="13.026"/><use xlink:href="#13" y="15.197"/><use xlink:href="#14" y="19.539"/><use xlink:href="#15" y="21.71"/><use xlink:href="#16" y="23.881"/><use xlink:href="#1" y="28.223"/><use xlink:href="#2" y="30.394"/></svg><svg x="4738"><use xlink:href="#a"/><use xlink:href="#b" x="1.996" y="30.369"/><use xlink:href="#1" y="2.171"/><use xlink:href="#9" y="4.342"/><use xlink:href="#10" y="8.684"/><use xlink:href="#1" y="13.026"/><use xlink:href="#13" y="15.197"/><use xlink:href="#14" y="19.539"/><use xlink:href="#15" y="21.71"/><use xlink:href="#16" y="23.881"/><use xlink:href="#1" y="28.223"/><use xlink:href="#2" y="30.394"/></svg><svg x="4841"><use xlink:href="#a"/><use xlink:href="#b" x="2.996" y="30.369"/><use xlink:href="#1" y="2.171"/><use xlink:href="#9" y="4.342"/><use xlink:href="#10" y="8.684"/><use xlink:href="#1" y="13.026"/><use xlink:href="#13" y="15.197"/><use xlink:href="#14" y="19.539"/><use xlink:href="#15" y="21.71"/><use xlink:href="#16" y="23.881"/><use xlink:href="#1" y="28.223"/><use xlink:href="#3" y="30.394"/></svg><svg x="4944"><use xlink:href="#a"/><use xlink:href="#b" x="3.996" y="30.369"/><use xlink:href="#1" y="2.171"/><use xlink:href="#9" y="4.342"/><use xlink:href="#10" y="8.684"/><use xlink:href="#1" y="13.026"/><use xlink:href="#13" y="15.197"/><use xlink:href="#14" y="19.539"/><use xlink:href="#15" y="21.71"/><use xlink:href="#16" y="23.881"/><use xlink:href="#1" y="28.223"/><use xlink:href="#4" y="30.394"/></svg><svg x="5047"><use xlink:href="#a"/><use xlink:href="#b" x="4.996" y="30.369"/><use xlink:href="#1" y="2.171"/><use xlink:href="#9" y="4.342"/><use xlink:href="#10" y="8.684"/><use xlink:href="#1" y="13.026"/><use xlink:href="#13" y="15.197"/><use xlink:href="#14" y="19.539"/><use xlink:href="#15" y="21.71"/><use xlink:href="#16" y="23.881"/><use xlink:href="#1" y="28.223"/><use xlink:href="#5" y="30.394"/></svg><svg x="5150"><use xlink:href="#a"/><use xlink:href="#b" x="5.996" y="30.369"/><use xlink:href="#1" y="2.171"/><use xlink:href="#9" y="4.342"/><use xlink:href="#10" y="8.684"/><use xlink:href="#1" y="13.026"/><use xlink:href="#13" y="15.197"/><use xlink:href="#14" y="19.539"/><use xlink:href="#15" y="21.71"/><use xlink:href="#16" y="23.881"/><use xlink:href="#1" y="28.223"/><use xlink:href="#6" y="30.394"/></svg><svg x="5253"><use xlink:href="#a"/><use xlink:href="#b" x="6.996" y="30.369"/><use xlink:href="#1" y="2.171"/><use xlink:href="#9" y="4.342"/><use xlink:href="#10" y="8.684"/><use xlink:href="#1" y="13.026"/><use xlink:href="#13" y="15.197"/><use xlink:href="#14" y="19.539"/><use xlink:href="#15" y="21.71"/><use xlink:href="#16" y="23.881"/><use xlink:href="#1" y="28.223"/><use xlink:href="#7" y="30.394"/></svg><svg x="5356"><use xlink:href="#a"/><use xlink:href="#b" x="7.996" y="30.369"/><use xlink:href="#1" y="2.171"/><use xlink:href="#9" y="4.342"/><use xlink:href="#10" y="8.684"/><use xlink:href="#1" y="13.026"/><use xlink:href="#13" y="15.197"/><use xlink:href="#14" y="19.539"/><use xlink:href="#15" y="21.71"/><use xlink:href="#16" y="23.881"/><use xlink:href="#1" y="28.223"/><use xlink:href="#8" y="30.394"/></svg><svg x="5459"><use xlink:href="#a"/><use xlink:href="#b" x="8.996" y="30.369"/><use xlink:href="#1" y="2.171"/><use xlink:href="#9" y="4.342"/><use xlink:href="#10" y="8.684"/><use xlink:href="#1" y="13.026"/><use xlink:href="#13" y="15.197"/><use xlink:href="#14" y="19.539"/><use xlink:href="#15" y="21.71"/><use xlink:href="#16" y="23.881"/><use xlink:href="#1" y="28.223"/><use xlink:href="#9" y="30.394"/></svg><svg x="5562"><use xlink:href="#a"/><use xlink:href="#b" x="9.996" y="30.369"/><use xlink:href="#1" y="2.171"/><use xlink:href="#9" y="4.342"/><use xlink:href="#10" y="8.684"/><use xlink:href="#1" y="13.026"/><use xlink:href="#13" y="15.197"/><use xlink:href="#14" y="19.539"/><use xlink:href="#15" y="21.71"/><use xlink:href="#16" y="23.881"/><use xlink:href="#1" y="28.223"/><use xlink:href="#9" y="30.394"/></svg><svg x="5665"><use xlink:href="#a"/><use xlink:href="#b" x="10.996" y="30.369"/><use xlink:href="#1" y="2.171"/><use xlink:href="#9" y="4.342"/><use xlink:href="#10" y="8.684"/><use xlink:href="#1" y="13.026"/><use xlink:href="#13" y="15.197"/><use xlink:href="#14" y="19.539"/><use xlink:href="#15" y="21.71"/><use xlink:href="#16" y="23.881"/><use xlink:href="#1" y="28.223"/><use xlink:href="#11" y="30.394"/></svg><svg x="5768"><use xlink:href="#a"/><use xlink:href="#b" x="11.996" y="30.369"/><use xlink:href="#1" y="2.171"/><use xlink:href="#9" y="4.342"/><use xlink:href="#10" y="8.684"/><use xlink:href="#1" y="13.026"/><use xlink:href="#13" y="15.197"/><use xlink:href="#14" y="19.539"/><use xlink:href="#15" y="21.71"/><use xlink:href="#16" y="23.881"/><use xlink:href="#1" y="28.223"/><use xlink:href="#17" y="30.394"/></svg><svg x="5871"><use xlink:href="#a"/><use xlink:href="#b" x="12.996" y="30.369"/><use xlink:href="#1" y="2.171"/><use xlink:href="#9" y="4.342"/><use xlink:href="#10" y="8.684"/><use xlink:href="#1" y="13.026"/><use xlink:href="#13" y="15.197"/><use xlink:href="#14" y="19.539"/><use xlink:href="#15" y="21.71"/><use xlink:href="#16" y="23.881"/><use xlink:href="#1" y="28.223"/><use xlink:href="#17" y="30.394"/></svg><svg x="5974"><use xlink:href="#a"/><use xlink:href="#b" x="13.996" y="30.369"/><use xlink:href="#1" y="2.171"/><use xlink:href="#9" y="4.342"/><use xlink:href="#10" y="8.684"/><use xlink:href="#1" y="13.026"/><use xlink:href="#13" y="15.197"/><use xlink:href="#14" y="19.539"/><use xlink:href="#15" y="21.71"/><use xlink:href="#16" y="23.881"/><use xlink:href="#1" y="28.223"/><text y="32.064" class="g">$</text><text x="2.004" y="32.064" class="f">samurai</text><text x="10.02" y="32.064" class="g">-c</text><text x="13.026" y="32.064" class="g">-</text></svg><svg x="6077"><use xlink:href="#a"/><use xlink:href="#b" x="14.996" y="30.369"/><use xlink:href="#1" y="2.171"/><use xlink:href="#9" y="4.342"/><use xlink:href="#10" y="8.684"/><use xlink:href="#1" y="13.026"/><use xlink:href="#13" y="15.197"/><use xlink:href="#14" y="19.539"/><use xlink:href="#15" y="21.71"/><use xlink:href="#16" y="23.881"/><use xlink:href="#1" y="28.223"/><use xlink:href="#18" y="30.394"/></svg><svg x="6180"><use xlink:href="#a"/><use xlink:href="#b" x="14.996" y="30.369"/><use xlink:href="#1" y="2.171"/><use xlink:href="#9" y="4.342"/><use xlink:href="#10" y="8.684"/><use xlink:href="#1" y="13.026"/><use xlink:href="#13" y="15.197"/><use xlink:href="#14" y="19.539"/><use xlink:href="#15" y="21.71"/><use xlink:href="#16" y="23.881"/><use xlink:href="#1" y="28.223"/><use xlink:href="#18" y="30.394"/></svg><svg x="6283"><use xlink:href="#a"/><use xlink:href="#b" x="-.004" y="32.54"/><use xlink:href="#1" y="2.171"/><use xlink:href="#9" y="4.342"/><use xlink:href="#10" y="8.684"/><use xlink:href="#1" y="13.026"/><use xlink:href="#13" y="15.197"/><use xlink:href="#14" y="19.539"/><use xlink:href="#15" y="21.71"/><use xlink:href="#16" y="23.881"/><use xlink:href="#1" y="28.223"/><use xlink:href="#18" y="30.394"/></svg><svg x="6386"><use xlink:href="#a"/><use xlink:href="#b" x="-.004" y="34.711"/><use xlink:href="#1" y="2.171"/><use xlink:href="#9" y="4.342"/><use xlink:href="#10" y="8.684"/><use xlink:href="#1" y="13.026"/><use xlink:href="#13" y="15.197"/><use xlink:href="#14" y="19.539"/><use xlink:href="#15" y="21.71"/><use xlink:href="#16" y="23.881"/><use xlink:href="#1" y="28.223"/><use xlink:href="#18" y="30.394"/></svg><svg x="6489"><use xlink:href="#a"/><use xlink:href="#b" x="-.004" y="34.711"/><use xlink:href="#1" y="2.171"/><use xlink:href="#9" y="4.342"/><use xlink:href="#10" y="8.684"/><use xlink:href="#1" y="13.026"/><use xlink:href="#13" y="15.197"/><use xlink:href="#14" y="19.539"/><use xlink:href="#15" y="21.71"/><use xlink:href="#16" y="23.881"/><use xlink:href="#1" y="28.223"/><use xlink:href="#18" y="30.394"/></svg><svg x="6592"><use xlink:href="#a"/><use xlink:href="#b" x="-.004" y="34.711"/><use xlink:href="#1" y="2.171"/><use xlink:href="#9" y="4.342"/><use xlink:href="#10" y="8.684"/><use xlink:href="#1" y="13.026"/><use xlink:href="#13" y="15.197"/><use xlink:href="#14" y="19.539"/><use xlink:href="#15" y="21.71"/><use xlink:href="#16" y="23.881"/><use xlink:href="#1" y="28.223"/><use xlink:href="#18" y="30.394"/></svg><svg x="6695"><use xlink:href="#a"/><use xlink:href="#b" x="-.004" y="36.882"/><use xlink:href="#1" y="2.171"/><use xlink:href="#9" y="4.342"/><use xlink:href="#10" y="8.684"/><use xlink:href="#1" y="13.026"/><use xlink:href="#13" y="15.197"/><use xlink:href="#14" y="19.539"/><use xlink:href="#15" y="21.71"/><use xlink:href="#16" y="23.881"/><use xlink:href="#1" y="28.223"/><use xlink:href="#18" y="30.394"/><use xlink:href="#19" y="34.736"/></svg><svg x="6798"><use xlink:href="#a"/><use xlink:href="#b" x="-.004" y="36.882"/><use xlink:href="#1" y="2.171"/><use xlink:href="#9" y="4.342"/><use xlink:href="#10" y="8.684"/><use xlink:href="#1" y="13.026"/><use xlink:href="#13" y="15.197"/><use xlink:href="#14" y="19.539"/><use xlink:href="#15" y="21.71"/><use xlink:href="#16" y="23.881"/><use xlink:href="#1" y="28.223"/><use xlink:href="#18" y="30.394"/><use xlink:href="#19" y="34.736"/></svg><svg x="6901"><use xlink:href="#a"/><use xlink:href="#b" x="-.004" y="39.053"/><use xlink:href="#1" y="2.171"/><use xlink:href="#9" y="4.342"/><use xlink:href="#10" y="8.684"/><use xlink:href="#1" y="13.026"/><use xlink:href="#13" y="15.197"/><use xlink:href="#14" y="19.539"/><use xlink:href="#15" y="21.71"/><use xlink:href="#16" y="23.881"/><use xlink:href="#1" y="28.223"/><use xlink:href="#18" y="30.394"/><use xlink:href="#19" y="34.736"/></svg><svg x="7004"><use xlink:href="#a"/><use xlink:href="#b" x="-.004" y="39.053"/><use xlink:href="#1" y="2.171"/><use xlink:href="#9" y="4.342"/><use xlink:href="#10" y="8.684"/><use xlink:href="#1" y="13.026"/><use xlink:href="#13" y="15.197"/><use xlink:href="#14" y="19.539"/><use xlink:href="#15" y="21.71"/><use xlink:href="#16" y="23.881"/><use xlink:href="#1" y="28.223"/><use xlink:href="#18" y="30.394"/><use xlink:href="#19" y="34.736"/></svg><svg x="7107"><use xlink:href="#a"/><use xlink:href="#b" x="1.996" y="41.224"/><use xlink:href="#1" y="2.171"/><use xlink:href="#9" y="4.342"/><use xlink:href="#10" y="8.684"/><use xlink:href="#1" y="13.026"/><use xlink:href="#13" y="15.197"/><use xlink:href="#14" y="19.539"/><use xlink:href="#15" y="21.71"/><use xlink:href="#16" y="23.881"/><use xlink:href="#1" y="28.223"/><use xlink:href="#18" y="30.394"/><use xlink:href="#19" y="34.736"/><use xlink:href="#1" y="39.078"/><use xlink:href="#2" y="41.249"/></svg><svg x="7210"><use xlink:href="#a"/><use xlink:href="#b" x="1.996" y="41.224"/><use xlink:href="#1" y="2.171"/><use xlink:href="#9" y="4.342"/><use xlink:href="#10" y="8.684"/><use xlink:href="#1" y="13.026"/><use xlink:href="#13" y="15.197"/><use xlink:href="#14" y="19.539"/><use xlink:href="#15" y="21.71"/><use xlink:href="#16" y="23.881"/><use xlink:href="#1" y="28.223"/><use xlink:href="#18" y="30.394"/><use xlink:href="#19" y="34.736"/><use xlink:href="#1" y="39.078"/><use xlink:href="#2" y="41.249"/></svg><svg x="7313"><use xlink:href="#a"/><use xlink:href="#b" x="1.996" y="41.224"/><use xlink:href="#1" y="2.171"/><use xlink:href="#9" y="4.342"/><use xlink:href="#10" y="8.684"/><use xlink:href="#1" y="13.026"/><use xlink:href="#13" y="15.197"/><use xlink:href="#14" y="19.539"/><use xlink:href="#15" y="21.71"/><use xlink:href="#16" y="23.881"/><use xlink:href="#1" y="28.223"/><use xlink:href="#18" y="30.394"/><use xlink:href="#19" y="34.736"/><use xlink:href="#1" y="39.078"/><use xlink:href="#2" y="41.249"/></svg><svg x="7416"><use xlink:href="#a"/><use xlink:href="#b" x="2.996" y="41.224"/><use xlink:href="#1" y="2.171"/><use xlink:href="#9" y="4.342"/><use xlink:href="#10" y="8.684"/><use xlink:href="#1" y="13.026"/><use xlink:href="#13" y="15.197"/><use xlink:href="#14" y="19.539"/><use xlink:href="#15" y="21.71"/><use xlink:href="#16" y="23.881"/><use xlink:href="#1" y="28.223"/><use xlink:href="#18" y="30.394"/><use xlink:href="#19" y="34.736"/><use xlink:href="#1" y="39.078"/><use xlink:href="#3" y="41.249"/></svg><svg x="7519"><use xlink:href="#a"/><use xlink:href="#b" x="3.996" y="41.224"/><use xlink:href="#1" y="2.171"/><use xlink:href="#9" y="4.342"/><use xlink:href="#10" y="8.684"/><use xlink:href="#1" y="13.026"/><use xlink:href="#13" y="15.197"/><use xlink:href="#14" y="19.539"/><use xlink:href="#15" y="21.71"/><use xlink:href="#16" y="23.881"/><use xlink:href="#1" y="28.223"/><use xlink:href="#18" y="30.394"/><use xlink:href="#19" y="34.736"/><use xlink:href="#1" y="39.078"/><use xlink:href="#4" y="41.249"/></svg><svg x="7622"><use xlink:href="#a"/><use xlink:href="#b" x="4.996" y="41.224"/><use xlink:href="#1" y="2.171"/><use xlink:href="#9" y="4.342"/><use xlink:href="#10" y="8.684"/><use xlink:href="#1" y="13.026"/><use xlink:href="#13" y="15.197"/><use xlink:href="#14" y="19.539"/><use xlink:href="#15" y="21.71"/><use xlink:href="#16" y="23.881"/><use xlink:href="#1" y="28.223"/><use xlink:href="#18" y="30.394"/><use xlink:href="#19" y="34.736"/><use xlink:href="#1" y="39.078"/><use xlink:href="#5" y="41.249"/></svg><svg x="7725"><use xlink:href="#a"/><use xlink:href="#b" x="5.996" y="41.224"/><use xlink:href="#1" y="2.171"/><use xlink:href="#9" y="4.342"/><use xlink:href="#10" y="8.684"/><use xlink:href="#1" y="13.026"/><use xlink:href="#13" y="15.197"/><use xlink:href="#14" y="19.539"/><use xlink:href="#15" y="21.71"/><use xlink:href="#16" y="23.881"/><use xlink:href="#1" y="28.223"/><use xlink:href="#18" y="30.394"/><use xlink:href="#19" y="34.736"/><use xlink:href="#1" y="39.078"/><use xlink:href="#6" y="41.249"/></svg><svg x="7828"><use xlink:href="#a"/><use xlink:href="#b" x="6.996" y="41.224"/><use xlink:href="#1" y="2.171"/><use xlink:href="#9" y="4.342"/><use xlink:href="#10" y="8.684"/><use xlink:href="#1" y="13.026"/><use xlink:href="#13" y="15.197"/><use xlink:href="#14" y="19.539"/><use xlink:href="#15" y="21.71"/><use xlink:href="#16" y="23.881"/><use xlink:href="#1" y="28.223"/><use xlink:href="#18" y="30.394"/><use xlink:href="#19" y="34.736"/><use xlink:href="#1" y="39.078"/><use xlink:href="#7" y="41.249"/></svg><svg x="7931"><use xlink:href="#a"/><use xlink:href="#b" x="7.996" y="41.224"/><use xlink:href="#1" y="2.171"/><use xlink:href="#9" y="4.342"/><use xlink:href="#10" y="8.684"/><use xlink:href="#1" y="13.026"/><use xlink:href="#13" y="15.197"/><use xlink:href="#14" y="19.539"/><use xlink:href="#15" y="21.71"/><use xlink:href="#16" y="23.881"/><use xlink:href="#1" y="28.223"/><use xlink:href="#18" y="30.394"/><use xlink:href="#19" y="34.736"/><use xlink:href="#1" y="39.078"/><use xlink:href="#8" y="41.249"/></svg><svg x="8034"><use xlink:href="#a"/><use xlink:href="#b" x="8.996" y="41.224"/><use xlink:href="#1" y="2.171"/><use xlink:href="#9" y="4.342"/><use xlink:href="#10" y="8.684"/><use xlink:href="#1" y="13.026"/><use xlink:href="#13" y="15.197"/><use xlink:href="#14" y="19.539"/><use xlink:href="#15" y="21.71"/><use xlink:href="#16" y="23.881"/><use xlink:href="#1" y="28.223"/><use xlink:href="#18" y="30.394"/><use xlink:href="#19" y="34.736"/><use xlink:href="#1" y="39.078"/><use xlink:href="#9" y="41.249"/></svg><svg x="8137"><use xlink:href="#a"/><use xlink:href="#b" x="9.996" y="41.224"/><use xlink:href="#1" y="2.171"/><use xlink:href="#9" y="4.342"/><use xlink:href="#10" y="8.684"/><use xlink:href="#1" y="13.026"/><use xlink:href="#13" y="15.197"/><use xlink:href="#14" y="19.539"/><use xlink:href="#15" y="21.71"/><use xlink:href="#16" y="23.881"/><use xlink:href="#1" y="28.223"/><use xlink:href="#18" y="30.394"/><use xlink:href="#19" y="34.736"/><use xlink:href="#1" y="39.078"/><use xlink:href="#9" y="41.249"/></svg><svg x="8240"><use xlink:href="#a"/><use xlink:href="#b" x="10.996" y="41.224"/><use xlink:href="#1" y="2.171"/><use xlink:href="#9" y="4.342"/><use xlink:href="#10" y="8.684"/><use xlink:href="#1" y="13.026"/><use xlink:href="#13" y="15.197"/><use xlink:href="#14" y="19.539"/><use xlink:href="#15" y="21.71"/><use xlink:href="#16" y="23.881"/><use xlink:href="#1" y="28.223"/><use xlink:href="#18" y="30.394"/><use xlink:href="#19" y="34.736"/><use xlink:href="#1" y="39.078"/><use xlink:href="#11" y="41.249"/></svg><svg x="8343"><use xlink:href="#a"/><use xlink:href="#b" x="11.996" y="41.224"/><use xlink:href="#1" y="2.171"/><use xlink:href="#9" y="4.342"/><use xlink:href="#10" y="8.684"/><use xlink:href="#1" y="13.026"/><use xlink:href="#13" y="15.197"/><use xlink:href="#14" y="19.539"/><use xlink:href="#15" y="21.71"/><use xlink:href="#16" y="23.881"/><use xlink:href="#1" y="28.223"/><use xlink:href="#18" y="30.394"/><use xlink:href="#19" y="34.736"/><use xlink:href="#1" y="39.078"/><use xlink:href="#20" y="41.249"/></svg><svg x="8446"><use xlink:href="#a"/><use xlink:href="#b" x="12.996" y="41.224"/><use xlink:href="#1" y="2.171"/><use xlink:href="#9" y="4.342"/><use xlink:href="#10" y="8.684"/><use xlink:href="#1" y="13.026"/><use xlink:href="#13" y="15.197"/><use xlink:href="#14" y="19.539"/><use xlink:href="#15" y="21.71"/><use xlink:href="#16" y="23.881"/><use xlink:href="#1" y="28.223"/><use xlink:href="#18" y="30.394"/><use xlink:href="#19" y="34.736"/><use xlink:href="#1" y="39.078"/><use xlink:href="#20" y="41.249"/></svg><svg x="8549"><use xlink:href="#a"/><use xlink:href="#b" x="13.996" y="41.224"/><use xlink:href="#1" y="2.171"/><use xlink:href="#9" y="4.342"/><use xlink:href="#10" y="8.684"/><use xlink:href="#1" y="13.026"/><use xlink:href="#13" y="15.197"/><use xlink:href="#14" y="19.539"/><use xlink:href="#15" y="21.71"/><use xlink:href="#16" y="23.881"/><use xlink:href="#1" y="28.223"/><use xlink:href="#18" y="30.394"/><use xlink:href="#19" y="34.736"/><use xlink:href="#1" y="39.078"/><text y="42.919" class="g">$</text><text x="2.004" y="42.919" class="f">samurai</text><text x="10.02" y="42.919" class="g">-l</text><text x="13.026" y="42.919" class="g">3</text></svg><svg x="8652"><use xlink:href="#a"/><use xlink:href="#b" x="14.996" y="41.224"/><use xlink:href="#1" y="2.171"/><use xlink:href="#9" y="4.342"/><use xlink:href="#10" y="8.684"/><use xlink:href="#1" y="13.026"/><use xlink:href="#13" y="15.197"/><use xlink:href="#14" y="19.539"/><use xlink:href="#15" y="21.71"/><use xlink:href="#16" y="23.881"/><use xlink:href="#1" y="28.223"/><use xlink:href="#18" y="30.394"/><use xlink:href="#19" y="34.736"/><use xlink:href="#1" y="39.078"/><use xlink:href="#21" y="41.249"/></svg><svg x="8755"><use xlink:href="#a"/><use xlink:href="#b" x="15.996" y="41.224"/><use xlink:href="#1" y="2.171"/><use xlink:href="#9" y="4.342"/><use xlink:href="#10" y="8.684"/><use xlink:href="#1" y="13.026"/><use xlink:href="#13" y="15.197"/><use xlink:href="#14" y="19.539"/><use xlink:href="#15" y="21.71"/><use xlink:href="#16" y="23.881"/><use xlink:href="#1" y="28.223"/><use xlink:href="#18" y="30.394"/><use xlink:href="#19" y="34.736"/><use xlink:href="#1" y="39.078"/><use xlink:href="#21" y="41.249"/></svg><svg x="8858"><use xlink:href="#a"/><use xlink:href="#b" x="16.996" y="41.224"/><use xlink:href="#1" y="2.171"/><use xlink:href="#9" y="4.342"/><use xlink:href="#10" y="8.684"/><use xlink:href="#1" y="13.026"/><use xlink:href="#13" y="15.197"/><use xlink:href="#14" y="19.539"/><use xlink:href="#15" y="21.71"/><use xlink:href="#16" y="23.881"/><use xlink:href="#1" y="28.223"/><use xlink:href="#18" y="30.394"/><use xlink:href="#19" y="34.736"/><use xlink:href="#1" y="39.078"/><text y="42.919" class="g">$</text><text x="2.004" y="42.919" class="f">samurai</text><text x="10.02" y="42.919" class="g">-l</text><text x="13.026" y="42.919" class="g">30</text><text x="16.032" y="42.919" class="g">-</text></svg><svg x="8961"><use xlink:href="#a"/><use xlink:href="#b" x="17.996" y="41.224"/><use xlink:href="#1" y="2.171"/><use xlink:href="#9" y="4.342"/><use xlink:href="#10" y="8.684"/><use xlink:href="#1" y="13.026"/><use xlink:href="#13" y="15.197"/><use xlink:href="#14" y="19.539"/><use xlink:href="#15" y="21.71"/><use xlink:href="#16" y="23.881"/><use xlink:href="#1" y="28.223"/><use xlink:href="#18" y="30.394"/><use xlink:href="#19" y="34.736"/><use xlink:href="#1" y="39.078"/><use xlink:href="#22" y="41.249"/></svg><svg x="9064"><use xlink:href="#a"/><use xlink:href="#b" x="18.996" y="41.224"/><use xlink:href="#1" y="2.171"/><use xlink:href="#9" y="4.342"/><use xlink:href="#10" y="8.684"/><use xlink:href="#1" y="13.026"/><use xlink:href="#13" y="15.197"/><use xlink:href="#14" y="19.539"/><use xlink:href="#15" y="21.71"/><use xlink:href="#16" y="23.881"/><use xlink:href="#1" y="28.223"/><use xlink:href="#18" y="30.394"/><use xlink:href="#19" y="34.736"/><use xlink:href="#1" y="39.078"/><use xlink:href="#22" y="41.249"/></svg><svg x="9167"><use xlink:href="#a"/><use xlink:href="#b" x="19.996" y="41.224"/><use xlink:href="#1" y="2.171"/><use xlink:href="#9" y="4.342"/><use xlink:href="#10" y="8.684"/><use xlink:href="#1" y="13.026"/><use xlink:href="#13" y="15.197"/><use xlink:href="#14" y="19.539"/><use xlink:href="#15" y="21.71"/><use xlink:href="#16" y="23.881"/><use xlink:href="#1" y="28.223"/><use xlink:href="#18" y="30.394"/><use xlink:href="#19" y="34.736"/><use xlink:href="#1" y="39.078"/><use xlink:href="#23" y="41.249"/></svg><svg x="9270"><use xlink:href="#a"/><use xlink:href="#b" x="20.996" y="41.224"/><use xlink:href="#1" y="2.171"/><use xlink:href="#9" y="4.342"/><use xlink:href="#10" y="8.684"/><use xlink:href="#1" y="13.026"/><use xlink:href="#13" y="15.197"/><use xlink:href="#14" y="19.539"/><use xlink:href="#15" y="21.71"/><use xlink:href="#16" y="23.881"/><use xlink:href="#1" y="28.223"/><use xlink:href="#18" y="30.394"/><use xlink:href="#19" y="34.736"/><use xlink:href="#1" y="39.078"/><use xlink:href="#23" y="41.249"/></svg><svg x="9373"><use xlink:href="#a"/><use xlink:href="#b" x="21.996" y="41.224"/><use xlink:href="#1" y="2.171"/><use xlink:href="#9" y="4.342"/><use xlink:href="#10" y="8.684"/><use xlink:href="#1" y="13.026"/><use xlink:href="#13" y="15.197"/><use xlink:href="#14" y="19.539"/><use xlink:href="#15" y="21.71"/><use xlink:href="#16" y="23.881"/><use xlink:href="#1" y="28.223"/><use xlink:href="#18" y="30.394"/><use xlink:href="#19" y="34.736"/><use xlink:href="#1" y="39.078"/><text y="42.919" class="g">$</text><text x="2.004" y="42.919" class="f">samurai</text><text x="10.02" y="42.919" class="g">-l</text><text x="13.026" y="42.919" class="g">30</text><text x="16.032" y="42.919" class="g">-n</text><text x="19.038" y="42.919" class="g">4</text><text x="21.042" y="42.919" class="g">-</text></svg><svg x="9476"><use xlink:href="#a"/><use xlink:href="#b" x="22.996" y="41.224"/><use xlink:href="#1" y="2.171"/><use xlink:href="#9" y="4.342"/><use xlink:href="#10" y="8.684"/><use xlink:href="#1" y="13.026"/><use xlink:href="#13" y="15.197"/><use xlink:href="#14" y="19.539"/><use xlink:href="#15" y="21.71"/><use xlink:href="#16" y="23.881"/><use xlink:href="#1" y="28.223"/><use xlink:href="#18" y="30.394"/><use xlink:href="#19" y="34.736"/><use xlink:href="#1" y="39.078"/><use xlink:href="#24" y="41.249"/></svg><svg x="9579"><use xlink:href="#a"/><use xlink:href="#b" x="23.996" y="41.224"/><use xlink:href="#1" y="2.171"/><use xlink:href="#9" y="4.342"/><use xlink:href="#10" y="8.684"/><use xlink:href="#1" y="13.026"/><use xlink:href="#13" y="15.197"/><use xlink:href="#14" y="19.539"/><use xlink:href="#15" y="21.71"/><use xlink:href="#16" y="23.881"/><use xlink:href="#1" y="28.223"/><use xlink:href="#18" y="30.394"/><use xlink:href="#19" y="34.736"/><use xlink:href="#1" y="39.078"/><use xlink:href="#24" y="41.249"/></svg><svg x="9682"><use xlink:href="#a"/><use xlink:href="#b" x="24.996" y="41.224"/><use xlink:href="#1" y="2.171"/><use xlink:href="#9" y="4.342"/><use xlink:href="#10" y="8.684"/><use xlink:href="#1" y="13.026"/><use xlink:href="#13" y="15.197"/><use xlink:href="#14" y="19.539"/><use xlink:href="#15" y="21.71"/><use xlink:href="#16" y="23.881"/><use xlink:href="#1" y="28.223"/><use xlink:href="#18" y="30.394"/><use xlink:href="#19" y="34.736"/><use xlink:href="#1" y="39.078"/><text y="42.919" class="g">$</text><text x="2.004" y="42.919" class="f">samurai</text><text x="10.02" y="42.919" class="g">-l</text><text x="13.026" y="42.919" class="g">30</text><text x="16.032" y="42.919" class="g">-n</text><text x="19.038" y="42.919" class="g">4</text><text x="21.042" y="42.919" class="g">-c</text><text x="24.048" y="42.919" class="g">-</text></svg><svg x="9785"><use xlink:href="#a"/><use xlink:href="#b" x="25.996" y="41.224"/><use xlink:href="#1" y="2.171"/><use xlink:href="#9" y="4.342"/><use xlink:href="#10" y="8.684"/><use xlink:href="#1" y="13.026"/><use xlink:href="#13" y="15.197"/><use xlink:href="#14" y="19.539"/><use xlink:href="#15" y="21.71"/><use xlink:href="#16" y="23.881"/><use xlink:href="#1" y="28.223"/><use xlink:href="#18" y="30.394"/><use xlink:href="#19" y="34.736"/><use xlink:href="#1" y="39.078"/><use xlink:href="#25" y="41.249"/></svg><svg x="9888"><use xlink:href="#a"/><use xlink:href="#b" x="25.996" y="41.224"/><use xlink:href="#1" y="2.171"/><use xlink:href="#9" y="4.342"/><use xlink:href="#10" y="8.684"/><use xlink:href="#1" y="13.026"/><use xlink:href="#13" y="15.197"/><use xlink:href="#14" y="19.539"/><use xlink:href="#15" y="21.71"/><use xlink:href="#16" y="23.881"/><use xlink:href="#1" y="28.223"/><use xlink:href="#18" y="30.394"/><use xlink:href="#19" y="34.736"/><use xlink:href="#1" y="39.078"/><use xlink:href="#25" y="41.249"/></svg><svg x="9991"><use xlink:href="#a"/><use xlink:href="#b" x="-.004" y="43.395"/><use xlink:href="#1" y="2.171"/><use xlink:href="#9" y="4.342"/><use xlink:href="#10" y="8.684"/><use xlink:href="#1" y="13.026"/><use xlink:href="#13" y="15.197"/><use xlink:href="#14" y="19.539"/><use xlink:href="#15" y="21.71"/><use xlink:href="#16" y="23.881"/><use xlink:href="#1" y="28.223"/><use xlink:href="#18" y="30.394"/><use xlink:href="#19" y="34.736"/><use xlink:href="#1" y="39.078"/><use xlink:href="#25" y="41.249"/></svg><svg x="10094"><use xlink:href="#a"/><use xlink:href="#b" x="-.004" y="45.566"/><use xlink:href="#1" y="2.171"/><use xlink:href="#9" y="4.342"/><use xlink:href="#10" y="8.684"/><use xlink:href="#1" y="13.026"/><use xlink:href="#13" y="15.197"/><use xlink:href="#14" y="19.539"/><use xlink:href="#15" y="21.71"/><use xlink:href="#16" y="23.881"/><use xlink:href="#1" y="28.223"/><use xlink:href="#18" y="30.394"/><use xlink:href="#19" y="34.736"/><use xlink:href="#1" y="39.078"/><use xlink:href="#25" y="41.249"/></svg><svg x="10197"><use xlink:href="#a"/><use xlink:href="#b" x="-.004" y="45.566"/><use xlink:href="#1" y="2.171"/><use xlink:href="#9" y="4.342"/><use xlink:href="#10" y="8.684"/><use xlink:href="#1" y="13.026"/><use xlink:href="#13" y="15.197"/><use xlink:href="#14" y="19.539"/><use xlink:href="#15" y="21.71"/><use xlink:href="#16" y="23.881"/><use xlink:href="#1" y="28.223"/><use xlink:href="#18" y="30.394"/><use xlink:href="#19" y="34.736"/><use xlink:href="#1" y="39.078"/><use xlink:href="#25" y="41.249"/></svg><svg x="10300"><use xlink:href="#a"/><use xlink:href="#b" x="-.004" y="47.737"/><use xlink:href="#1" y="2.171"/><use xlink:href="#9" y="4.342"/><use xlink:href="#10" y="8.684"/><use xlink:href="#1" y="13.026"/><use xlink:href="#13" y="15.197"/><use xlink:href="#14" y="19.539"/><use xlink:href="#15" y="21.71"/><use xlink:href="#16" y="23.881"/><use xlink:href="#1" y="28.223"/><use xlink:href="#18" y="30.394"/><use xlink:href="#19" y="34.736"/><use xlink:href="#1" y="39.078"/><use xlink:href="#25" y="41.249"/><use xlink:href="#26" y="45.591"/></svg><svg x="10403"><use xlink:href="#a"/><use xlink:href="#b" x="-.004" y="47.737"/><use xlink:href="#1" y="2.171"/><use xlink:href="#9" y="4.342"/><use xlink:href="#10" y="8.684"/><use xlink:href="#1" y="13.026"/><use xlink:href="#13" y="15.197"/><use xlink:href="#14" y="19.539"/><use xlink:href="#15" y="21.71"/><use xlink:href="#16" y="23.881"/><use xlink:href="#1" y="28.223"/><use xlink:href="#18" y="30.394"/><use xlink:href="#19" y="34.736"/><use xlink:href="#1" y="39.078"/><use xlink:href="#25" y="41.249"/><use xlink:href="#26" y="45.591"/></svg><svg x="10506"><use xlink:href="#a"/><use xlink:href="#b" x="-.004" y="49.908"/><use xlink:href="#1" y="2.171"/><use xlink:href="#9" y="4.342"/><use xlink:href="#10" y="8.684"/><use xlink:href="#1" y="13.026"/><use xlink:href="#13" y="15.197"/><use xlink:href="#14" y="19.539"/><use xlink:href="#15" y="21.71"/><use xlink:href="#16" y="23.881"/><use xlink:href="#1" y="28.223"/><use xlink:href="#18" y="30.394"/><use xlink:href="#19" y="34.736"/><use xlink:href="#1" y="39.078"/><use xlink:href="#25" y="41.249"/><use xlink:href="#26" y="45.591"/></svg><svg x="10609"><use xlink:href="#a"/><use xlink:href="#b" x="-.004" y="49.908"/><use xlink:href="#1" y="2.171"/><use xlink:href="#9" y="4.342"/><use xlink:href="#10" y="8.684"/><use xlink:href="#1" y="13.026"/><use xlink:href="#13" y="15.197"/><use xlink:href="#14" y="19.539"/><use xlink:href="#15" y="21.71"/><use xlink:href="#16" y="23.881"/><use xlink:href="#1" y="28.223"/><use xlink:href="#18" y="30.394"/><use xlink:href="#19" y="34.736"/><use xlink:href="#1" y="39.078"/><use xlink:href="#25" y="41.249"/><use xlink:href="#26" y="45.591"/></svg><svg x="10712"><use xlink:href="#a"/><use xlink:href="#b" x="1.996" y="52.079"/><use xlink:href="#1" y="2.171"/><use xlink:href="#9" y="4.342"/><use xlink:href="#10" y="8.684"/><use xlink:href="#1" y="13.026"/><use xlink:href="#13" y="15.197"/><use xlink:href="#14" y="19.539"/><use xlink:href="#15" y="21.71"/><use xlink:href="#16" y="23.881"/><use xlink:href="#1" y="28.223"/><use xlink:href="#18" y="30.394"/><use xlink:href="#19" y="34.736"/><use xlink:href="#1" y="39.078"/><use xlink:href="#25" y="41.249"/><use xlink:href="#26" y="45.591"/><use xlink:href="#1" y="49.933"/><use xlink:href="#2" y="52.104"/></svg><svg x="10815"><use xlink:href="#a"/><use xlink:href="#b" x="1.996" y="52.079"/><use xlink:href="#1" y="2.171"/><use xlink:href="#9" y="4.342"/><use xlink:href="#10" y="8.684"/><use xlink:href="#1" y="13.026"/><use xlink:href="#13" y="15.197"/><use xlink:href="#14" y="19.539"/><use xlink:href="#15" y="21.71"/><use xlink:href="#16" y="23.881"/><use xlink:href="#1" y="28.223"/><use xlink:href="#18" y="30.394"/><use xlink:href="#19" y="34.736"/><use xlink:href="#1" y="39.078"/><use xlink:href="#25" y="41.249"/><use xlink:href="#26" y="45.591"/><use xlink:href="#1" y="49.933"/><use xlink:href="#2" y="52.104"/></svg><svg x="10918"><use xlink:href="#a"/><use xlink:href="#b" x="1.996" y="52.079"/><use xlink:href="#1" y="2.171"/><use xlink:href="#9" y="4.342"/><use xlink:href="#10" y="8.684"/><use xlink:href="#1" y="13.026"/><use xlink:href="#13" y="15.197"/><use xlink:href="#14" y="19.539"/><use xlink:href="#15" y="21.71"/><use xlink:href="#16" y="23.881"/><use xlink:href="#1" y="28.223"/><use xlink:href="#18" y="30.394"/><use xlink:href="#19" y="34.736"/><use xlink:href="#1" y="39.078"/><use xlink:href="#25" y="41.249"/><use xlink:href="#26" y="45.591"/><use xlink:href="#1" y="49.933"/><use xlink:href="#2" y="52.104"/></svg><svg x="11021"><use xlink:href="#a"/><use xlink:href="#b" x="-.004" y="52.079"/><use xlink:href="#1"/><use xlink:href="#9" y="2.171"/><use xlink:href="#10" y="6.513"/><use xlink:href="#1" y="10.855"/><use xlink:href="#13" y="13.026"/><use xlink:href="#14" y="17.368"/><use xlink:href="#15" y="19.539"/><use xlink:href="#16" y="21.71"/><use xlink:href="#1" y="26.052"/><use xlink:href="#18" y="28.223"/><use xlink:href="#19" y="32.565"/><use xlink:href="#1" y="36.907"/><use xlink:href="#25" y="39.078"/><use xlink:href="#26" y="43.42"/><use xlink:href="#1" y="47.762"/><use xlink:href="#2" y="49.933"/></svg></svg></g></g></svg></svg>